<svg height="17.56" width="24" xmlns="http://www.w3.org/2000/svg"><path d="M23.576 11.44a1.215 1.215 0 00.174-.63 1.253 1.253 0 00-1.195-1.25L19.799 4a1.971 1.971 0 00-1.836-2.68 1.969 1.969 0 00-1.962 1.83l-2.7 2.71h-3.27V1.53A1.52 1.52 0 008.509.01H4.33a1.521 1.521 0 00-1.522 1.52v4.33h-.847A1.115 1.115 0 00.845 6.97v2.6a1.117 1.117 0 001.116 1.12H4.6v.69H3.086a3.085 3.085 0 000 6.17H13.96a3.085 3.085 0 100-6.17h-3.633v-.69h3.895a1.117 1.117 0 001.116-1.12V7.32l2.015-2.16a1.775 1.775 0 00.61.1 1.556 1.556 0 00.375-.04l2.93 5.34a1.411 1.411 0 00-.024.25 1.278 1.278 0 00.2.69l-2.236 2.23-.9-.9-.6.6 1.482 1.48a2.811 2.811 0 004.386-3.47zM4.953 2.16h2.928v3.46H4.953zm5.8 11.98v-.97h1.416v.97h1.522v-.97h.269a1.3 1.3 0 011.3 1.29 1.3 1.3 0 01-1.3 1.3h-1.738v-.67H10.7v.67H9.284v-.67H7.762v.67H6.345v-.67H4.824v.67H3.086a1.314 1.314 0 01-.917-.38 1.3 1.3 0 01-.379-.92 1.259 1.259 0 01.379-.91 1.272 1.272 0 01.917-.38h.269v.97h1.522v-.97h1.416v.97h1.521v-.97h1.417v.97zm7.21-10.19a.655.655 0 11.656-.66.654.654 0 01-.656.66zm4.534 7.35a.49.49 0 11.492-.49.491.491 0 01-.489.49z" fill="#fff" fill-rule="evenodd"/></svg>