<svg width="136" height="29" fill="none" xmlns="http://www.w3.org/2000/svg"><path d="M55.216 25.232c-.144-.24-.752-1.2-.968-1.496v-.248h.968V22.8h-.968v-1.504h-.728V22.8h-1.088v.688h1.032c-.232 1.032-.704 2.24-1.208 2.872.128.2.296.528.368.736.328-.48.648-1.208.896-1.992v3.528h.728v-3.976c.2.4.424.832.528 1.096l.44-.52zm4.384.12v-.68h-1.768v-1.264h1.528v-.68h-1.528v-1.432h-.728v1.432h-.688c.072-.304.136-.616.184-.944l-.688-.112c-.128.928-.376 1.848-.784 2.44.16.08.464.272.592.376.192-.296.36-.664.496-1.08h.888v1.264h-1.832v.68h1.448c-.44.952-1.168 1.848-1.928 2.328.16.136.384.392.496.576.704-.504 1.344-1.344 1.816-2.28v2.656h.728V25.92c.384.888.912 1.752 1.448 2.272a2.91 2.91 0 01.544-.584c-.616-.496-1.224-1.368-1.6-2.256H59.6zm3.224-.128h1.4v-.72h-3.472v.72h1.328v2.144c-.608.112-1.16.216-1.592.288l.216.752c1.024-.224 2.456-.536 3.784-.84l-.056-.672a63.41 63.41 0 01-1.608.32v-1.992zm2.848-3.488c.392.28.856.696 1.08.976l.52-.464c-.232-.272-.72-.664-1.112-.92l-.488.408zm1.88 1.704v-.728h-2.296c-.016-.448-.024-.92-.016-1.384h-.8c0 .464.016.928.032 1.384h-4.008v.728h4.056c.2 2.88.832 5.208 2.152 5.208.664 0 .928-.392 1.056-1.832a1.884 1.884 0 01-.656-.424c-.048 1.04-.144 1.472-.336 1.472-.696 0-1.256-1.904-1.432-4.424h2.248zm2.72.272c.712-.536 1.32-1.136 1.704-1.696.424.584 1.08 1.184 1.8 1.696h-3.504zm-.152.688h3.744v-.624c.464.328.952.608 1.416.832.128-.224.296-.488.472-.672-1.248-.488-2.576-1.464-3.424-2.64h-.768c-.6.976-1.904 2.128-3.272 2.752.16.16.36.44.44.608.48-.232.952-.52 1.392-.832v.576zm-1.376 1.528h1.984c-.192.536-.48 1.176-.744 1.672l-1.184.04.096.728c1.36-.056 3.392-.144 5.296-.24.144.192.264.368.352.52l.68-.424c-.368-.592-1.128-1.44-1.856-2.056l-.64.344c.312.28.632.616.928.952-.976.04-1.968.08-2.856.112a35.43 35.43 0 00.848-1.648h3.664v-.696h-6.568v.696zm10.992-.144a39.658 39.658 0 00-1.224-1.048c.4-.528.752-1.112.992-1.72l-.416-.28-.128.024h-.552v-1.472h-.736v1.472h-1.208v.68h2.096c-.544 1-1.464 1.928-2.376 2.448.112.144.296.496.368.688.376-.24.76-.544 1.12-.896v2.952h.736v-3.184c.328.328.688.712.872.944l.456-.608zm2.224 1.888v-3.136h1.616v-.72H81.96v-2.464h-.76v2.464h-1.616v.72H81.2v3.136h-1.936v.736h4.48v-.736H81.96zm10.1-4.008H90.1v-.416h1.585v-.432H90.1v-.4h-.672v.4h-1.504v.432h1.504v.416H87.5v.44h4.56v-.44zm-1.903 2.104h1.192c-.2.16-.432.328-.648.472a3.178 3.178 0 01-.544-.464v-.008zm-1.568-.944h2.4v.544h-2.4v-.544zm3.056.8v-1.208h-3.68v1.352h1.368c-.544.408-1.288.744-2 .968.128.112.328.36.416.48a8.616 8.616 0 001.584-.792v1.016h.656v-1.128c.496.48 1.184.88 1.856 1.088.088-.136.264-.368.392-.472a4.795 4.795 0 01-1.12-.44c.296-.168.632-.392.92-.624l-.392-.24zm-4.488 2.024v-5.36h5.248v5.36h-5.248zm-.696-6.032v7.016h.696v-.312h5.248v.312h.728v-7.016H86.46zm9.88 4.752h-.432v-4.904h-.6v4.904H94.9v-3.72h-.536v5.056h.536v-.736h1.44v.496h.52v-4.816h-.52v3.72zm2.664-.512v.832h-.968v-.832h.968zm.608 1.368v-1.896h-2.168v2.336h.592v-.44h1.576zm-2.176-3.048c.864-.192 1.376-.48 1.696-.912.568.296 1.224.664 1.608.912h-3.304zm4.048 0h-.64l.424-.472c-.44-.272-1.232-.68-1.864-.976l.048-.184h1.792v-.608h-1.68c.016-.2.032-.416.04-.648h-.688a7.2 7.2 0 01-.048.648h-1.696v.608h1.56c-.208.576-.664.896-1.688 1.096.128.128.288.368.352.536h-.456v.624h3.32v3.016c0 .12-.04.152-.168.152-.136.008-.568.008-1.04-.008.104.184.216.472.256.672.616 0 1.032-.016 1.296-.12.272-.112.352-.304.352-.68V24.8h.528v-.624zm1 1.688c-.08.688-.232 1.392-.472 1.872.152.056.448.192.568.28.248-.512.432-1.288.536-2.04l-.632-.112zm2.168-.56c.064.168.112.32.144.448l.568-.272c-.112-.44-.44-1.12-.768-1.64l-.536.232c.12.2.232.416.336.64l-1.064.04c.536-.664 1.136-1.544 1.592-2.272l-.632-.272c-.208.416-.496.912-.808 1.392a4.66 4.66 0 00-.392-.464c.288-.432.624-1.064.912-1.608l-.672-.24a9.225 9.225 0 01-.656 1.448l-.216-.192-.36.496c.352.336.76.768 1.008 1.12-.16.224-.312.432-.464.624l-.56.016.064.656c.368-.024.792-.048 1.248-.072v3.256h.664v-3.296l.592-.04zm-.416.704c.2.488.416 1.12.488 1.536l.592-.208a8.724 8.724 0 00-.52-1.512l-.56.184zm2.144.352h1.8v1.376h-1.8V26.36zm1.8-3.976v1.312h-1.8v-1.312h1.8zm0 3.304h-1.8v-1.32h1.8v1.32zm.752 2.048v-6.024h-3.28v6.024h-.792v.672h4.648v-.672h-.576zM35.625 8.18H32.57v-.938c0-.437-.039-.716-.117-.836-.078-.12-.208-.18-.39-.18a.506.506 0 00-.454.243c-.099.161-.148.406-.148.734 0 .422.057.74.172.953.11.214.42.472.93.774 1.463.87 2.385 1.583 2.765 2.14.38.558.57 1.456.57 2.696 0 .9-.106 1.565-.32 1.992-.208.427-.614.786-1.219 1.078-.604.286-1.307.43-2.109.43-.88 0-1.633-.167-2.258-.5-.62-.334-1.026-.758-1.219-1.274-.192-.515-.289-1.247-.289-2.195v-.828h3.055v1.539c0 .474.042.779.125.914.089.135.242.203.461.203.219 0 .38-.086.484-.258.11-.172.164-.427.164-.765 0-.745-.101-1.232-.304-1.461-.209-.23-.722-.612-1.54-1.149-.817-.542-1.359-.935-1.624-1.18-.266-.244-.487-.583-.664-1.015-.172-.432-.258-.985-.258-1.656 0-.97.122-1.677.367-2.125.25-.448.651-.797 1.203-1.047.552-.255 1.219-.383 2-.383.854 0 1.58.138 2.18.414.604.276 1.002.625 1.195 1.047.198.417.297 1.127.297 2.133v.5zm8.828 3.578c0 1.27-.031 2.172-.094 2.703a2.969 2.969 0 01-.562 1.445 3.001 3.001 0 01-1.274 1.008c-.536.234-1.161.352-1.875.352-.677 0-1.286-.11-1.828-.328a3.032 3.032 0 01-1.297-1 2.994 2.994 0 01-.586-1.446c-.062-.52-.093-1.432-.093-2.734V9.594c0-1.271.028-2.17.086-2.696.062-.53.25-1.015.562-1.453a3.058 3.058 0 011.281-1.008c.537-.234 1.162-.351 1.875-.351.677 0 1.284.112 1.82.336.542.219.977.55 1.305.992.329.443.524.925.586 1.445.063.521.094 1.433.094 2.735v2.164zm-3.289-4.156c0-.589-.034-.964-.102-1.125-.062-.167-.195-.25-.398-.25a.456.456 0 00-.398.203c-.089.13-.133.52-.133 1.172v5.906c0 .734.028 1.187.086 1.36.062.171.203.257.422.257.224 0 .367-.099.43-.297.062-.198.093-.67.093-1.414V7.602zm11.867-3.25V17h-2.883l-1.71-5.75V17h-2.75V4.352h2.75l1.843 5.695V4.352h2.75zm8.844 7.406c0 1.27-.031 2.172-.094 2.703a2.968 2.968 0 01-.562 1.445 3.002 3.002 0 01-1.274 1.008c-.536.234-1.161.352-1.875.352-.677 0-1.286-.11-1.828-.328a3.031 3.031 0 01-1.297-1 2.994 2.994 0 01-.586-1.446c-.062-.52-.093-1.432-.093-2.734V9.594c0-1.271.028-2.17.086-2.696.062-.53.25-1.015.562-1.453a3.058 3.058 0 011.281-1.008c.537-.234 1.162-.351 1.875-.351.677 0 1.284.112 1.82.336.542.219.977.55 1.305.992.328.443.524.925.586 1.445.063.521.094 1.433.094 2.735v2.164zm-3.29-4.156c0-.589-.033-.964-.1-1.125-.063-.167-.196-.25-.4-.25a.456.456 0 00-.398.203c-.088.13-.132.52-.132 1.172v5.906c0 .734.028 1.187.086 1.36.062.171.203.257.422.257.223 0 .367-.099.43-.297.062-.198.093-.67.093-1.414V7.602zm10.024-3.25v2.53l-2.453 7.587h2.453V17h-6.062v-1.836l2.531-8.281h-2.234V4.352h5.765zm6.54 0L77.03 17h-3.367l-.164-2.273h-1.18L72.125 17h-3.406L70.39 4.352h4.757zm-1.743 8.132c-.166-1.432-.333-3.2-.5-5.304-.333 2.416-.541 4.185-.625 5.304h1.125zM85.43 4.352l-1.883 5.71L85.609 17h-3.398l-1.328-5.422V17h-3.29V4.352h3.29v4.914l1.46-4.914h3.087zm4.047 0V17h-3.29V4.352h3.29zm11.828 5.515h-3.29V7.664c0-.64-.036-1.039-.109-1.195-.068-.162-.221-.242-.46-.242-.272 0-.443.096-.516.289-.073.192-.11.609-.11 1.25v5.875c0 .614.037 1.015.11 1.203.073.187.237.281.492.281.245 0 .404-.094.476-.281.079-.188.118-.628.118-1.32v-1.586h3.289v.492c0 1.307-.094 2.234-.282 2.78-.182.548-.591 1.027-1.226 1.438-.63.412-1.409.618-2.336.618-.964 0-1.758-.175-2.383-.524-.625-.349-1.039-.83-1.242-1.445-.203-.62-.305-1.55-.305-2.79V8.814c0-.912.031-1.594.094-2.047.063-.459.247-.899.555-1.32.312-.423.742-.753 1.289-.993.552-.245 1.185-.367 1.898-.367.969 0 1.768.187 2.399.562.63.375 1.044.844 1.242 1.407.198.557.297 1.427.297 2.61v1.202zm8.695 1.89c0 1.272-.031 2.173-.094 2.704a2.972 2.972 0 01-.562 1.445 3.003 3.003 0 01-1.274 1.008c-.536.234-1.161.352-1.875.352-.677 0-1.286-.11-1.828-.328a3.034 3.034 0 01-1.297-1 3 3 0 01-.586-1.446c-.062-.52-.093-1.432-.093-2.734V9.594c0-1.271.028-2.17.086-2.696a3.08 3.08 0 01.562-1.453 3.062 3.062 0 011.281-1.008c.537-.234 1.162-.351 1.875-.351.677 0 1.284.112 1.821.336.541.219.976.55 1.304.992.328.443.524.925.586 1.445.063.521.094 1.433.094 2.735v2.164zm-3.289-4.155c0-.589-.034-.964-.102-1.125-.062-.167-.195-.25-.398-.25a.457.457 0 00-.399.203c-.088.13-.132.52-.132 1.172v5.906c0 .734.028 1.187.086 1.36.062.171.203.257.422.257.223 0 .367-.099.429-.297.063-.198.094-.67.094-1.414V7.602zm6.531 6.82V17h-2.383v-2.578h2.383zm4.235-10.07v10.117h2V17h-5.289V4.352h3.289zm9.429 0v2.53h-1.953V17h-3.289V6.883h-1.945V4.352h7.187zm.75 0h2.461c1.589 0 2.662.072 3.219.218.562.146.99.386 1.281.72.292.332.474.705.547 1.116.073.407.109 1.209.109 2.407v4.43c0 1.135-.054 1.895-.164 2.28-.104.38-.289.68-.554.899a2.39 2.39 0 01-.985.453c-.39.083-.979.125-1.765.125h-4.149V4.352zm3.289 2.164v8.32c.474 0 .766-.094.875-.281.11-.193.164-.711.164-1.555V8.086c0-.573-.018-.94-.054-1.102a.511.511 0 00-.25-.351c-.131-.078-.375-.117-.735-.117zM11.91 2.956l.09.055.09-.055a8.411 8.411 0 011.079-.563l.316-.137-.3-.17a6.159 6.159 0 00-1.132-.497L12 1.572l-.053.017a6.149 6.149 0 00-1.131.498l-.3.169.316.137c.37.16.733.35 1.078.563z" fill="#fff"/><path d="M24 10.13a7.519 7.519 0 00-3.683-6.447A7.518 7.518 0 0013.869 0 7.5 7.5 0 0012 .237 7.499 7.499 0 0010.13 0a7.519 7.519 0 00-6.447 3.683A7.519 7.519 0 000 10.13c0 .632.08 1.26.237 1.87A7.508 7.508 0 000 13.87a7.519 7.519 0 003.683 6.447A7.519 7.519 0 0010.131 24 7.5 7.5 0 0012 23.763a7.5 7.5 0 001.87.237 7.519 7.519 0 006.447-3.683A7.519 7.519 0 0024 13.87c0-.632-.08-1.26-.237-1.87A7.51 7.51 0 0024 10.13zm-2.96 5.527l-.07.058.009.091a7.137 7.137 0 01-.913 4.26 7.135 7.135 0 01-4.26.913l-.09-.01-.059.072A7.1 7.1 0 0112 23.409a7.101 7.101 0 01-3.657-2.368l-.058-.072-.091.01a7.136 7.136 0 01-4.26-.913 7.137 7.137 0 01-.912-4.26l.009-.09-.071-.06A7.097 7.097 0 01.59 12a7.097 7.097 0 012.37-3.657l.07-.058-.008-.091a7.137 7.137 0 01.913-4.26 7.136 7.136 0 014.259-.913l.09.01.059-.072A7.101 7.101 0 0112 .591a7.1 7.1 0 013.657 2.368l.058.072.091-.01a7.136 7.136 0 014.26.913 7.136 7.136 0 01.912 4.26l-.009.09.071.06A7.097 7.097 0 0123.41 12a7.097 7.097 0 01-2.369 3.657z" fill="#fff"/><path d="M18.332 5.54l.024.104.103.024a8.43 8.43 0 011.157.363l.32.127-.092-.332a6.202 6.202 0 00-.446-1.149l-.026-.05-.05-.025a6.22 6.22 0 00-1.148-.446l-.332-.093.127.32c.148.375.27.765.363 1.158zm-3.767.013l.064.099.115-.025a8.41 8.41 0 011.023-.154l.228-.02-.083-.213a6.174 6.174 0 00-.554-1.091l-.064-.1-.117.025a6.16 6.16 0 00-1.165.382l-.209.091.147.175c.221.264.428.544.615.831zM20.988 12l.056.09c.213.345.402.707.563 1.078l.137.316.17-.3c.202-.357.37-.738.497-1.131l.017-.053-.017-.053a6.17 6.17 0 00-.498-1.132l-.17-.3-.136.316c-.16.371-.35.734-.563 1.079l-.056.09zM18.76 8.088l-.213-.082-.02.227c-.03.342-.082.686-.154 1.023l-.025.115.1.064c.286.187.566.394.83.615l.175.147.092-.208a6.19 6.19 0 00.381-1.166l.026-.116-.1-.065a6.188 6.188 0 00-1.092-.554zm-3.188-.352l.052.19c.023.086.044.172.065.258l.024.103.103.025c.086.02.172.041.257.064l.192.052.023-.197c.015-.121.026-.246.034-.371l.011-.193-.193.011c-.125.008-.25.02-.371.034l-.197.024zm2.888 10.596l-.104.024-.024.103a8.393 8.393 0 01-.364 1.157l-.126.32.332-.092c.396-.11.783-.26 1.149-.446l.05-.026.025-.05c.186-.365.336-.752.446-1.148l.093-.332-.32.127a8.43 8.43 0 01-1.158.363zm1.085-4.321l-.092-.208-.175.147a8.67 8.67 0 01-.83.615l-.1.064.025.115c.072.337.124.68.154 1.023l.02.227.213-.082a6.19 6.19 0 001.091-.554l.101-.065-.026-.116a6.198 6.198 0 00-.381-1.166zM18.124 12l-.144-.128a6.198 6.198 0 00-.285-.238l-.156-.123-.098.172a9.216 9.216 0 01-.136.227l-.055.09.055.09c.047.075.092.15.136.227l.098.172.156-.123c.097-.076.193-.156.285-.238l.144-.128zm-.879-2.173l-.139-.067a7.425 7.425 0 00-2.205-.661 7.42 7.42 0 00-.661-2.205l-.067-.139-.145.051A7.464 7.464 0 0012 7.897a7.46 7.46 0 00-2.028-1.09l-.145-.052-.067.14a7.418 7.418 0 00-.66 2.203c-.77.106-1.51.328-2.205.661l-.139.067.051.144c.257.729.623 1.41 1.092 2.029a7.451 7.451 0 00-1.092 2.028l-.05.145.138.067A7.423 7.423 0 009.1 14.9c.106.77.328 1.51.661 2.205l.067.139.145-.052A7.462 7.462 0 0012 16.104a7.46 7.46 0 002.028 1.09l.145.052.067-.14a7.417 7.417 0 00.661-2.204 7.426 7.426 0 002.205-.661l.139-.067-.052-.145A7.453 7.453 0 0016.104 12c.467-.618.834-1.3 1.09-2.029l.052-.144zm-3.561 3.857a7.097 7.097 0 01-1.684.699 7.1 7.1 0 01-1.684-.699 7.098 7.098 0 01-.7-1.684 7.103 7.103 0 01.7-1.684 7.103 7.103 0 011.684-.7 7.106 7.106 0 011.684.7c.306.531.54 1.098.7 1.684a7.099 7.099 0 01-.7 1.684zm-1.594 7.36l-.09-.056-.09.056a8.408 8.408 0 01-1.078.563l-.316.137.3.17c.357.202.738.37 1.131.497l.053.017.053-.017a6.155 6.155 0 001.132-.497l.3-.17-.316-.137a8.377 8.377 0 01-1.079-.563zm2.654-2.671l-.115-.025-.065.099a8.481 8.481 0 01-.615.83l-.146.175.208.092c.374.166.766.294 1.166.382l.116.026.065-.101c.22-.344.406-.711.554-1.091l.082-.213-.227-.02a8.392 8.392 0 01-1.023-.154zm1.544-2.604l-.023-.197-.192.052a7.258 7.258 0 01-.257.064l-.103.025-.024.103c-.02.086-.042.172-.065.257l-.052.191.197.024c.122.015.246.026.371.034l.193.011-.011-.193a6.391 6.391 0 00-.034-.371zM5.668 18.46l-.024-.104-.103-.024a8.425 8.425 0 01-1.157-.363l-.32-.127.092.332c.11.396.26.783.447 1.149l.025.05.05.025a6.22 6.22 0 001.149.446l.331.093-.126-.32a8.383 8.383 0 01-.364-1.158zm3.768-.013l-.065-.099-.115.025c-.336.072-.68.124-1.023.154l-.227.02.082.213c.148.38.334.747.554 1.091l.065.1.116-.025c.4-.088.792-.216 1.166-.382l.208-.092-.146-.174a8.482 8.482 0 01-.615-.831zM12 18.125l.128-.145a6.01 6.01 0 00.238-.285l.123-.155-.172-.099a8.614 8.614 0 01-.227-.136L12 17.25l-.09.055c-.075.047-.15.092-.227.136l-.172.099.123.155c.076.097.156.193.238.285l.128.145zM5.541 5.668l.103-.024.024-.103a8.39 8.39 0 01.364-1.158l.126-.32-.332.093c-.396.11-.783.26-1.148.446l-.05.025-.025.05a6.196 6.196 0 00-.447 1.15l-.093.331.32-.127a8.42 8.42 0 011.158-.363zm3.715-.041l.115.025.065-.099a8.24 8.24 0 01.615-.83l.146-.176-.208-.091a6.161 6.161 0 00-1.166-.382l-.116-.026-.065.101c-.22.344-.406.711-.554 1.091l-.082.213.227.02c.343.03.687.082 1.023.154zM12 5.875l-.128.145a6.091 6.091 0 00-.238.285l-.123.155.172.099c.076.044.152.09.227.135l.09.056.09-.056c.075-.046.15-.091.227-.135l.171-.099-.122-.155a6.032 6.032 0 00-.238-.285L12 5.875zm-9.607 4.956l-.137-.316-.17.3a6.17 6.17 0 00-.497 1.132L1.572 12l.017.053c.128.393.295.774.498 1.132l.17.3.136-.317c.16-.37.35-.733.563-1.078l.056-.09-.056-.09a8.434 8.434 0 01-.563-1.079zm2.062-.842l.092.208.175-.147c.264-.22.544-.428.83-.615l.1-.064-.025-.115a8.484 8.484 0 01-.154-1.023l-.02-.227-.213.082c-.38.147-.747.334-1.091.554l-.101.065.026.116c.087.4.216.791.381 1.166zm3.257-1.758l.024.197.19-.052c.086-.023.172-.045.258-.064l.103-.025.024-.103c.021-.086.042-.172.065-.257l.052-.191-.196-.024a6.076 6.076 0 00-.372-.034l-.193-.011.012.193c.007.125.018.25.033.371zM5.24 15.912l.213.082.02-.227a8.46 8.46 0 01.154-1.023l.025-.115-.1-.064a8.664 8.664 0 01-.83-.615l-.175-.147-.092.208a6.198 6.198 0 00-.381 1.166l-.026.116.1.065c.345.22.712.406 1.092.554zm1.32-4.229l-.1-.171-.155.122a6.227 6.227 0 00-.285.238L5.875 12l.145.128c.092.082.188.162.285.238l.155.123.1-.172c.043-.076.088-.152.135-.227L6.75 12l-.055-.09a9.579 9.579 0 01-.136-.227zm1.868 4.581l-.052-.19a8.986 8.986 0 01-.065-.258l-.024-.103-.103-.025a7.314 7.314 0 01-.257-.064l-.191-.052-.024.197a6.374 6.374 0 00-.033.37l-.012.194.193-.011c.125-.008.25-.02.372-.034l.196-.024z" fill="#fff"/><path d="M13.015 11.06l-.025-.05-.05-.025a6.16 6.16 0 00-.887-.37L12 10.599l-.053.018a6.158 6.158 0 00-.888.369l-.05.025-.024.05a6.28 6.28 0 00-.37.886l-.017.054.018.053c.098.303.223.601.369.887l.025.05.05.025c.285.146.584.27.887.37l.053.017.053-.018a6.17 6.17 0 00.887-.369l.05-.025.025-.05c.146-.285.27-.584.37-.887l.017-.053-.018-.053a6.195 6.195 0 00-.369-.888z" fill="#fff"/></svg>