<svg fill="none" height="29" viewBox="0 0 136 29" width="136" xmlns="http://www.w3.org/2000/svg"><g fill="#191919"><path d="m55.216 25.232c-.144-.24-.752-1.2-.968-1.496v-.248h.968v-.688h-.968v-1.504h-.728v1.504h-1.088v.688h1.032c-.232 1.032-.704 2.24-1.208 2.872.128.2.296.528.368.736.328-.48.648-1.208.896-1.992v3.528h.728v-3.976c.2.4.424.832.528 1.096zm4.384.12v-.68h-1.768v-1.264h1.528v-.68h-1.528v-1.432h-.728v1.432h-.688c.072-.304.136-.616.184-.944l-.688-.112c-.128.928-.376 1.848-.784 2.44.16.08.464.272.592.376.192-.296.36-.664.496-1.08h.888v1.264h-1.832v.68h1.448c-.44.952-1.168 1.848-1.928 2.328.16.136.384.392.496.576.704-.504 1.344-1.344 1.816-2.28v2.656h.728v-2.712c.384.888.912 1.752 1.448 2.272.128-.192.368-.448.544-.584-.616-.496-1.224-1.368-1.6-2.256zm3.224-.128h1.4v-.72h-3.472v.72h1.328v2.144c-.608.112-1.16.216-1.592.288l.216.752c1.024-.224 2.456-.536 3.784-.84l-.056-.672c-.536.112-1.08.224-1.608.32zm2.848-3.488c.392.28.856.696 1.08.976l.52-.464c-.232-.272-.72-.664-1.112-.92zm1.88 1.704v-.728h-2.296c-.016-.448-.024-.92-.016-1.384h-.8c0 .464.016.928.032 1.384h-4.008v.728h4.056c.2 2.88.832 5.208 2.152 5.208.664 0 .928-.392 1.056-1.832-.208-.072-.488-.248-.656-.424-.048 1.04-.144 1.472-.336 1.472-.696 0-1.256-1.904-1.432-4.424zm2.72.272c.712-.536 1.32-1.136 1.704-1.696.424.584 1.08 1.184 1.8 1.696zm-.152.688h3.744v-.624c.464.328.952.608 1.416.832.128-.224.296-.488.472-.672-1.248-.488-2.576-1.464-3.424-2.64h-.768c-.6.976-1.904 2.128-3.272 2.752.16.16.36.44.44.608.48-.232.952-.52 1.392-.832zm-1.376 1.528h1.984c-.192.536-.48 1.176-.744 1.672l-1.184.04.096.728c1.36-.056 3.392-.144 5.296-.24.144.192.264.368.352.52l.68-.424c-.368-.592-1.128-1.44-1.856-2.056l-.64.344c.312.28.632.616.928.952-.976.04-1.968.08-2.856.112.288-.512.584-1.112.848-1.648h3.664v-.696h-6.568zm10.992-.144c-.184-.168-.848-.744-1.224-1.048.4-.528.752-1.112.992-1.72l-.416-.28-.128.024h-.552v-1.472h-.736v1.472h-1.208v.68h2.096c-.544 1-1.464 1.928-2.376 2.448.112.144.296.496.368.688.376-.24.76-.544 1.12-.896v2.952h.736v-3.184c.328.328.688.712.872.944zm2.224 1.888v-3.136h1.616v-.72h-1.616v-2.464h-.76v2.464h-1.616v.72h1.616v3.136h-1.936v.736h4.48v-.736zm10.1009-4.008h-1.96v-.416h1.584v-.432h-1.584v-.4h-.672v.4h-1.504v.432h1.504v.416h-1.928v.44h4.56zm-1.904 2.104h1.192c-.2.16-.432.328-.648.472-.208-.144-.4-.304-.544-.464zm-1.568-.944h2.4v.544h-2.4zm3.056.8v-1.208h-3.68v1.352h1.368c-.544.408-1.288.744-2 .968.128.112.328.36.416.48.528-.2 1.088-.472 1.584-.792v1.016h.656v-1.128c.496.48 1.184.88 1.856 1.088.088-.136.264-.368.392-.472-.384-.096-.768-.248-1.12-.44.296-.168.632-.392.92-.624zm-4.488 2.024v-5.36h5.248v5.36zm-.696-6.032v7.016h.696v-.312h5.248v.312h.728v-7.016zm9.88 4.752h-.432v-4.904h-.6v4.904h-.408v-3.72h-.536v5.056h.536v-.736h1.44v.496h.52v-4.816h-.52zm2.664-.512v.832h-.968v-.832zm.608 1.368v-1.896h-2.168v2.336h.592v-.44zm-2.176-3.048c.864-.192 1.376-.48 1.696-.912.568.296 1.2241.664 1.6081.912zm4.0481 0h-.64l.424-.472c-.44-.272-1.232-.68-1.8641-.976.016-.064.032-.12.048-.184h1.7921v-.608h-1.6801c.016-.2.032-.416.04-.648h-.688c-.008.24-.024.456-.048.648h-1.696v.608h1.56c-.208.576-.664.896-1.688 1.096.128.128.288.368.352.536h-.456v.624h3.3201v3.016c0 .12-.04.152-.168.152-.1361.008-.5681.008-1.0401-.008.104.184.216.472.256.672.616 0 1.0321-.016 1.2961-.12.272-.112.352-.304.352-.68v-3.032h.528zm1 1.688c-.08.688-.232 1.392-.472 1.872.152.056.448.192.568.28.248-.512.432-1.288.536-2.04zm2.168-.56c.064.168.112.32.144.448l.568-.272c-.112-.44-.44-1.12-.768-1.64l-.536.232c.12.2.232.416.336.64l-1.064.04c.536-.664 1.136-1.544 1.592-2.272l-.632-.272c-.208.416-.496.912-.808 1.392-.104-.144-.24-.304-.392-.464.288-.432.624-1.064.912-1.608l-.672-.24c-.144.432-.408 1.008-.656 1.448-.072-.064-.144-.128-.216-.192l-.36.496c.352.336.76.768 1.008 1.12-.16.224-.312.432-.464.624l-.56.016.064.656c.368-.024.792-.048 1.248-.072v3.256h.664v-3.296zm-.416.704c.2.488.416 1.12.488 1.536l.592-.208c-.088-.408-.304-1.032-.52-1.512zm2.144.352h1.8v1.376h-1.8zm1.8-3.976v1.312h-1.8v-1.312zm0 3.304h-1.8v-1.32h1.8zm.752 2.048v-6.024h-3.28v6.024h-.792v.672h4.648v-.672z"/><path d="m35.625 8.17969h-3.0547v-.9375c0-.4375-.0391-.71615-.1172-.83594s-.2083-.17969-.3906-.17969c-.1979 0-.349.08073-.4531.24219-.099.16146-.1485.40625-.1485.73437 0 .42188.0573.73959.1719.95313.1094.21354.4193.47135.9297.77344 1.4635.86979 2.3854 1.58331 2.7656 2.14061s.5703 1.4557.5703 2.6953c0 .9011-.1067 1.5651-.3203 1.9922-.2083.4271-.6146.7865-1.2187 1.0781-.6042.2865-1.3073.4297-2.1094.4297-.8802 0-1.6328-.1666-2.2578-.5-.6198-.3333-1.0261-.7578-1.2188-1.2734s-.289-1.2474-.289-2.1953v-.8281h3.0547v1.539c0 .474.0416.7787.125.9141.0885.1354.2421.2031.4609.2031s.3802-.0859.4844-.2578c.1094-.1719.164-.4271.164-.7656 0-.7448-.1015-1.2318-.3046-1.461-.2084-.2291-.7214-.612-1.5391-1.1484-.8177-.5417-1.3594-.9349-1.625-1.1797s-.487-.58333-.6641-1.01562c-.1718-.4323-.2578-.98438-.2578-1.65626 0-.96874.1224-1.67708.3672-2.125.25-.44791.651-.79687 1.2031-1.04687.5521-.25521 1.2188-.38281 2-.38281.8542 0 1.5808.13802 2.1797.41406.6042.27604 1.0026.625 1.1953 1.04688.1979.41666.2969 1.1276.2969 2.13281zm8.8281 3.57811c0 1.2708-.0312 2.1719-.0937 2.7031-.0573.5261-.2448 1.0079-.5625 1.4453-.3125.4376-.737.7735-1.2735 1.0079-.5364.2343-1.1614.3515-1.875.3515-.677 0-1.2864-.1094-1.8281-.3281-.5364-.224-.9687-.5573-1.2969-1-.3281-.4427-.5234-.9245-.5859-1.4453s-.0937-1.4323-.0937-2.7344v-2.16405c0-1.27083.0286-2.16927.0859-2.69531.0625-.53125.25-1.01563.5625-1.45313.3177-.4375.7448-.77343 1.2812-1.00781.5365-.23438 1.1615-.35156 1.875-.35156.6771 0 1.2839.11198 1.8204.33594.5416.21874.9765.54947 1.3046.99218.3282.44271.5235.92448.586 1.44532.0625.52083.0937 1.43229.0937 2.73437zm-3.289-4.15624c0-.58854-.0339-.96354-.1016-1.125-.0625-.16666-.1953-.25-.3984-.25-.1719 0-.3047.06771-.3985.20313-.0885.13021-.1328.52083-.1328 1.17187v5.90624c0 .7344.0287 1.1875.086 1.3594.0624.1719.2031.2578.4218.2578.224 0 .3672-.099.4297-.2969s.0938-.6692.0938-1.414zm11.8671-3.25v12.64844h-2.8828l-1.7109-5.75v5.75h-2.75v-12.64844h2.75l1.8437 5.69534v-5.69534zm8.8438 7.40624c0 1.2708-.0312 2.1719-.0938 2.7031-.0572.5261-.2447 1.0079-.5624 1.4453-.3126.4376-.737.7735-1.2735 1.0079-.5364.2343-1.1614.3515-1.875.3515-.6771 0-1.2864-.1094-1.8281-.3281-.5365-.224-.9688-.5573-1.2969-1s-.5234-.9245-.5859-1.4453-.0938-1.4323-.0938-2.7344v-2.16405c0-1.27083.0287-2.16927.086-2.69531.0625-.53125.25-1.01563.5625-1.45313.3177-.4375.7448-.77343 1.2812-1.00781.5365-.23438 1.1615-.35156 1.875-.35156.6771 0 1.2839.11198 1.8203.33594.5417.21874.9766.54947 1.3047.99218s.5235.92448.5859 1.44532c.0626.52083.0938 1.43229.0938 2.73437zm-3.2891-4.15624c0-.58854-.0338-.96354-.1015-1.125-.0625-.16666-.1953-.25-.3985-.25-.1718 0-.3047.06771-.3984.20313-.0885.13021-.1328.52083-.1328 1.17187v5.90624c0 .7344.0286 1.1875.0859 1.3594.0625.1719.2032.2578.4219.2578.224 0 .3672-.099.4297-.2969s.0937-.6692.0937-1.414zm10.0235-3.25v2.53125l-2.4532 7.58599h2.4532v2.5312h-6.0625v-1.8359l2.5312-8.28129h-2.2343v-2.53125zm6.539 0 1.8828 12.64844h-3.3671l-.1641-2.2734h-1.1797l-.1953 2.2734h-3.4062l1.6718-12.64844zm-1.7422 8.13284c-.1666-1.4323-.3333-3.20055-.5-5.30471-.3333 2.41666-.5416 4.18491-.625 5.30471zm12.0235-8.13284-1.8828 5.71094 2.0625 6.9375h-3.3985l-1.3281-5.4219v5.4219h-3.289v-12.64844h3.289v4.91406l1.461-4.91406zm4.0469 0v12.64844h-3.2891v-12.64844zm11.8284 5.51563h-3.2894v-2.20313c0-.64062-.0364-1.03906-.1094-1.19531-.0677-.16146-.2213-.24219-.4609-.24219-.2708 0-.4427.09636-.5156.28906-.0729.19271-.1094.60938-.1094 1.25v5.87498c0 .6146.0365 1.0156.1094 1.2032.0729.1874.237.2812.4922.2812.2448 0 .4036-.0938.4765-.2812.0782-.1876.1172-.6277.1172-1.3204v-1.5859h3.2894v.4922c0 1.3073-.094 2.2344-.282 2.7812-.182.5469-.591 1.0261-1.2261 1.4375-.6302.4115-1.4089.6172-2.336.6172-.9635 0-1.7578-.1745-2.3828-.5234-.625-.349-1.039-.8307-1.2422-1.4453-.2031-.6198-.3047-1.5495-.3047-2.7891v-3.6953c0-.91146.0313-1.59375.0938-2.04688.0625-.45833.2474-.89843.5547-1.32031.3125-.42187.7422-.7526 1.2891-.99219.552-.24479 1.1848-.36718 1.8984-.36718.9687 0 1.7682.1875 2.3984.5625.6304.375 1.0444.84375 1.2424 1.40625.198.55729.297 1.42708.297 2.60937zm8.695 1.89061c0 1.2708-.031 2.1719-.094 2.7031-.057.5261-.245 1.0079-.562 1.4453-.313.4376-.737.7735-1.274 1.0079-.536.2343-1.161.3515-1.875.3515-.677 0-1.286-.1094-1.828-.3281-.536-.224-.969-.5573-1.297-1s-.523-.9245-.586-1.4453c-.062-.5208-.093-1.4323-.093-2.7344v-2.16405c0-1.27083.028-2.16927.086-2.69531.062-.53125.25-1.01563.562-1.45313.318-.4375.745-.77343 1.281-1.00781.537-.23438 1.162-.35156 1.875-.35156.677 0 1.284.11198 1.821.33594.541.21874.976.54947 1.304.99218s.524.92448.586 1.44532c.063.52083.094 1.43229.094 2.73437zm-3.289-4.15624c0-.58854-.034-.96354-.102-1.125-.062-.16666-.195-.25-.398-.25-.172 0-.305.06771-.399.20313-.088.13021-.132.52083-.132 1.17187v5.90624c0 .7344.028 1.1875.086 1.3594.062.1719.203.2578.422.2578.223 0 .367-.099.429-.2969.063-.1979.094-.6692.094-1.414zm6.531 6.82034v2.5781h-2.383v-2.5781zm4.235-10.07034v10.11724h2v2.5312h-5.289v-12.64844zm9.429 0v2.53125h-1.953v10.11719h-3.289v-10.11719h-1.945v-2.53125zm.75 0h2.461c1.589 0 2.662.07292 3.219.21875.562.14584.99.38542 1.281.71875.292.33334.474.70573.547 1.11719.073.40625.109 1.20833.109 2.40625v4.4297c0 1.1354-.054 1.8958-.164 2.2812-.104.3802-.289.6797-.554.8985-.266.2135-.594.3646-.985.4531-.39.0833-.979.125-1.765.125h-4.149zm3.289 2.16406v8.32028c.474 0 .766-.0937.875-.2812.11-.1927.164-.7109.164-1.5547v-4.91406c0-.57292-.018-.94011-.054-1.10156-.037-.16146-.12-.27865-.25-.35157-.131-.07812-.375-.11719-.735-.11719z"/><path d="m11.9101 2.95576.09.05573.09-.05573c.3449-.21314.7076-.40252 1.0786-.56302l.316-.13678-.2998-.1695c-.3579-.20259-.7388-.36979-1.1317-.4972l-.0531-.01748-.0529.01753c-.393.1274-.7739.29456-1.1317.4972l-.2999.1695.316.13678c.371.1605.7337.34987 1.0785.56297z"/><path d="m24 10.1305c0-2.63716-1.4105-5.10287-3.6833-6.44716-1.3441-2.27278-3.81-3.68334-6.4473-3.68334-.6311 0-1.2596.079875-1.8694.236906-.6098-.157031-1.2383-.236906-1.8693-.236906-2.63736 0-5.10326 1.41056-6.44736 3.68334-2.27278 1.34429-3.68334 3.81-3.68334 6.44716 0 .6312.0800625 1.2597.236906 1.8695-.1568435.6098-.236906 1.2383-.236906 1.8695 0 2.6372 1.41056 5.1029 3.68334 6.4472 1.3441 2.2727 3.81 3.6833 6.44736 3.6833.631 0 1.2595-.0799 1.8693-.2369.6098.157 1.2383.2369 1.8694.2369 2.6373 0 5.1032-1.4106 6.4473-3.6833 2.2728-1.3443 3.6833-3.81 3.6833-6.4472 0-.6312-.0801-1.2597-.2369-1.8695.1568-.6098.2369-1.2383.2369-1.8695zm-2.9598 5.5263-.0707.0585.009.0908c.0232.2372.035.4753.035.7072 0 1.2468-.3278 2.4738-.9476 3.5524-1.0785.62-2.3059.9476-3.5528.9476-.2316 0-.4695-.0117-.7068-.0347l-.0912-.0093-.0581.0713c-.9523 1.1612-2.2162 1.9786-3.657 2.3683-1.4407-.3897-2.70473-1.2071-3.65705-2.3683l-.05803-.0713-.09117.0093c-.23733.023-.47522.0347-.70683.0347-1.24687 0-2.47425-.3276-3.5528-.9476-.61973-1.0786-.94762-2.3056-.94762-3.5524 0-.2319.01191-.47.03506-.7072l.00896-.0908-.07069-.0585c-1.16124-.9523-1.979111-2.2159-2.368361-3.6568.38925-1.4409 1.207121-2.70455 2.368311-3.65681l.07069-.05846-.00895-.09079c-.02316-.23728-.03507-.47536-.03507-.70721 0-1.24687.32789-2.47387.94763-3.55242 1.07855-.61997 2.30592-.94762 3.5528-.94762.2316 0 .46949.01172.70682.03469l.09117.00932.05804-.07129c.95236-1.16119 2.21639-1.978691 3.65709-2.368316 1.4408.389625 2.7047 1.207126 3.657 2.368266l.0581.0713.0912-.00933c.2373-.02297.4752-.03469.7068-.03469 1.2469 0 2.4743.32766 3.5528.94763.6198 1.07854.9476 2.30554.9476 3.55242 0 .23184-.0118.46992-.035.7072l-.009.0908.0707.05845c1.1612.95231 1.9791 2.21596 2.3683 3.65686-.3892 1.4409-1.2071 2.7045-2.3683 3.6568z"/><path d="m18.3319 5.54083.0244.10285.103.02456c.3931.09272.7822.21506 1.1572.36314l.3203.12704-.0924-.33202c-.1103-.39666-.2605-.78315-.4467-1.14906l-.0253-.04987-.0497-.02531c-.3657-.18586-.7523-.33629-1.1489-.44658l-.332-.09235.1267.32025c.1485.37491.2707.76454.3634 1.15735z"/><path d="m14.5648 5.55335.0642.09853.1154-.02457c.3362-.07204.6805-.12426 1.023-.15431l.2272-.02025-.0825-.21272c-.1474-.37987-.3339-.74695-.554-1.09101l-.0643-.10092-.1167.02573c-.3992.08803-.7912.21623-1.1652.38184l-.2087.09155.1466.17498c.2212.26382.4283.54357.615.83115z"/><path d="m20.9883 11.9999.0557.0904c.2129.3445.4023.7072.563 1.0781l.1368.316.1697-.2996c.2024-.358.3698-.7387.4972-1.1319l.0171-.053-.0171-.053c-.1274-.3932-.2948-.7738-.4972-1.1319l-.1697-.2996-.1368.316c-.1607.3709-.3501.7337-.563 1.0781z"/><path d="m18.76 8.08821-.2125-.08259-.0201.22715c-.0304.34252-.0822.68658-.1543 1.02281l-.025.11574.099.06394c.2873.18703.5669.39393.8309.61484l.1748.1465.0921-.20803c.1652-.37449.2936-.76645.3814-1.16545l.0258-.11654-.1007-.06468c-.3441-.21975-.7114-.40641-1.0914-.55369z"/><path d="m15.5723 7.7357.0516.19092c.023.08532.0445.17105.0649.25716l.0242.10364.1034.02419c.0861.01987.1718.04167.257.06468l.1911.05185.0238-.19678c.0146-.1216.0259-.24666.0335-.37135l.0115-.19326-.1929.01167c-.1249.00741-.2498.0187-.3718.03352z"/><path d="m18.4592 18.3318-.103.0245-.0244.1029c-.0927.3927-.2149.7824-.3633 1.1572l-.1267.3203.332-.0924c.3967-.1103.7832-.2607 1.1489-.4465l.0497-.0254.0253-.0498c.1862-.3659.3364-.7524.4467-1.1487l.0924-.3323-.3203.127c-.3751.1481-.7642.2705-1.1573.3632z"/><path d="m19.5449 14.0113-.0921-.2081-.1748.1466c-.264.2209-.5436.4278-.8309.6148l-.099.064.025.1157c.0721.3363.1239.6803.1543 1.0228l.0201.2272.2125-.0826c.38-.1473.7474-.334 1.0914-.5537l.1007-.0647-.0257-.1165c-.0879-.399-.2163-.791-.3815-1.1655z"/><path d="m18.1243 12.0001-.1444-.1282c-.0921-.0819-.1882-.1621-.2848-.2381l-.1557-.1223-.0988.1718c-.044.076-.089.1516-.1354.2267l-.0557.09.0557.09c.0464.0752.0914.1508.1354.2268l.0988.1718.1557-.1223c.0967-.0761.1927-.1563.2848-.2381z"/><path d="m17.2446 9.82652-.1385-.06623c-.6942-.33314-1.4351-.55566-2.205-.6616-.106-.76954-.3282-1.51106-.6614-2.20462l-.0665-.1387-.1449.05105c-.7282.2564-1.4099.62306-2.0283 1.09101-.6184-.468-1.3001-.83465-2.02835-1.09101l-.14494-.05105-.06642.1387c-.33333.69399-.55547 1.43508-.6614 2.20462-.76997.10599-1.51083.3285-2.205.6616l-.13852.06623.05105.14494c.25622.72824.62306 1.41014 1.09125 2.02854-.46819.6183-.83503 1.3002-1.09125 2.0285l-.05105.1449.13852.0663c.69398.3331 1.43507.5556 2.205.6615.10598.7696.32812 1.5107.6614 2.2047l.06642.1387.14494-.0511c.72825-.2564 1.40995-.623 2.02835-1.091.6184.468 1.3001.8347 2.0283 1.091l.1449.0511.0665-.1387c.3333-.6936.5554-1.4351.6614-2.2047.7699-.1059 1.511-.3285 2.205-.6615l.1385-.0663-.0511-.1449c-.2562-.7283-.623-1.4102-1.0911-2.0285.4681-.6184.835-1.3003 1.0911-2.02854zm-3.5606 3.85748c-.5315.3055-1.0977.5405-1.6841.699-.5864-.1586-1.1525-.3935-1.684-.699-.3055-.5315-.54065-1.0976-.69919-1.684.15854-.5864.39379-1.1526.69919-1.6841.5315-.3054 1.0976-.54043 1.684-.699.5864.15862 1.1526.3936 1.6841.699.3055.5315.5407 1.0977.6992 1.6841-.1586.5864-.3937 1.1526-.6992 1.684z"/><path d="m12.0901 21.0443-.09-.0558-.09.0558c-.3448.2131-.7075.4025-1.0785.563l-.316.1368.2999.1695c.3578.2026.7387.3698 1.1317.4972l.0529.0175.053-.0175c.393-.1274.7739-.2946 1.1318-.4972l.2998-.1695-.3161-.1368c-.3708-.1606-.7336-.3499-1.0785-.563z"/><path d="m14.7439 18.3727-.1153-.0246-.0643.0986c-.1866.2876-.3937.5673-.615.8311l-.1466.1745.2087.092c.374.1656.766.2938 1.1652.3818l.1167.0258.0643-.1009c.2201-.3441.4066-.7112.554-1.0911l.0825-.2127-.2272-.0202c-.3425-.03-.6867-.0822-1.023-.1543z"/><path d="m16.2883 15.7686-.0238-.1968-.1911.0518c-.0851.023-.171.0448-.257.0647l-.1034.0246-.0242.1032c-.0204.0861-.0419.1719-.0649.2572l-.0516.1909.1964.0238c.1219.0148.2468.0257.3717.0335l.1929.0117-.0115-.1933c-.0076-.1247-.0189-.2497-.0335-.3713z"/><path d="m5.66849 18.4591-.02438-.1028-.10308-.0246c-.39314-.0927-.78221-.215-1.15725-.3631l-.3203-.127.09234.3323c.11025.3963.26049.7828.44672 1.1487l.02536.0498.04969.0254c.36567.1858.75221.3362 1.14891.4465l.33197.0924-.12665-.3203c-.14846-.3748-.27062-.7645-.36333-1.1573z"/><path d="m9.43569 18.4467-.06432-.0986-.11531.0246c-.33628.0721-.68053.1243-1.02304.1543l-.22716.0203.08241.2127c.14746.3799.33393.7469.55406 1.091l.06431.1009.11672-.0257c.39919-.088.79116-.2162 1.16522-.3819l.20872-.0919-.1466-.1746c-.22131-.2638-.4284-.5435-.61501-.8311z"/><path d="m11.9998 18.1245.1282-.1446c.0819-.0919.1619-.1878.2381-.2848l.1224-.1555-.1715-.0985c-.0766-.0441-.1522-.0893-.2272-.1356l-.09-.0557-.09.0557c-.075.0463-.1505.0916-.2271.1356l-.1715.0985.1224.1555c.0762.097.1562.1929.238.2848z"/><path d="m5.54102 5.66815.10308-.02457.02438-.10284c.09272-.39277.21487-.78239.36332-1.15726l.12666-.32025-.33197.09235c-.3967.11029-.78319.26072-1.1489.44658l-.04969.02531-.02536.04988c-.18624.3659-.33647.75239-.44672 1.14905l-.09234.33202.32029-.12704c.37505-.14817.76411-.27051 1.15725-.36323z"/><path d="m9.25606 5.62727.11531.02456.06432-.09853c.18661-.28758.39375-.56733.61501-.8311l.1466-.17498-.20872-.09155c-.37406-.16561-.76603-.29381-1.16522-.38184l-.11672-.02573-.06431.10092c-.22017.34406-.4066.71114-.55406 1.09101l-.08241.21272.22716.02025c.34251.03.68676.08222 1.02304.15427z"/><path d="m11.9998 5.87549-.1282.14456c-.0818.09197-.1618.18782-.238.28485l-.1224.15544.1715.09858c.0765.04401.1521.0892.2271.13556l.09.05573.09-.05573c.075-.04636.1506-.09159.2272-.13556l.1715-.09858-.1224-.15544c-.0762-.09703-.1562-.19288-.2381-.28485z"/><path d="m2.39305 10.8314-.13678-.316-.16969.2996c-.20241.358-.36975.7387-.4972 1.1319l-.01711.053.01711.053c.12745.3932.29479.7738.4972 1.1319l.16969.2996.13678-.316c.16074-.3709.35006-.7337.56306-1.0781l.05574-.0904-.05574-.0904c-.21295-.3444-.40232-.7072-.56306-1.0781z"/><path d="m4.45505 9.98857.09216.20803.17475-.1465c.264-.22091.54356-.42781.83091-.61484l.09895-.06394-.02494-.11574c-.07204-.33628-.12389-.68034-.15431-1.02281l-.02006-.22715-.21253.08259c-.38011.14728-.74733.33394-1.09139.55369l-.10074.06468.02574.11654c.08789.399.21628.79096.38146 1.16545z"/><path d="m7.71199 8.23136.02377.19678.19111-.05185c.08512-.02296.17086-.04481.25701-.06468l.10341-.02419.02419-.10364c.02048-.08611.0419-.17184.06487-.25716l.05166-.19092-.19641-.02376c-.12197-.01482-.24684-.02611-.37176-.03352l-.19285-.01167.01153.19326c.00755.12469.01885.24975.03347.37135z"/><path d="m5.23998 15.9117.21253.0826.02006-.2272c.03037-.3425.08222-.6866.15431-1.0228l.02494-.1157-.09895-.064c-.28735-.187-.56691-.3939-.83091-.6148l-.17475-.1466-.09216.2081c-.16518.3745-.29357.7665-.38146 1.1655l-.02574.1165.10074.0647c.34406.2197.71128.4064 1.09139.5537z"/><path d="m6.55917 11.6833-.09882-.1718-.15562.1223c-.09666.076-.19266.1562-.28487.2381l-.14437.1282.14437.1282c.09216.0818.18821.1621.28487.2381l.15562.1223.09882-.1718c.04401-.076.08902-.1516.13538-.2268l.05573-.09-.05573-.09c-.04636-.0752-.09137-.1508-.13538-.2268z"/><path d="m8.42801 16.2642-.05166-.1909c-.02297-.0853-.04439-.1711-.06487-.2572l-.02419-.1032-.10341-.0246c-.08597-.0199-.17184-.0417-.25701-.0647l-.19111-.0518-.02377.1968c-.01462.1216-.02587.2466-.03347.3713l-.01153.1933.19285-.0117c.12487-.0078.24979-.0187.37176-.0335z"/><path d="m13.0153 11.0593-.0253-.0495-.0495-.0253c-.2861-.1461-.5845-.2701-.8875-.369l-.0531-.0176-.0532.0176c-.3029.0989-.6014.2229-.8874.369l-.0495.0253-.0253.0495c-.1459.286-.2701.5844-.369.8872l-.0174.0534.0174.053c.0989.3031.2231.6015.369.8876l.0253.0495.0495.0253c.286.1461.5844.27.8874.369l.0532.0176.0532-.0176c.3029-.099.6014-.2229.8874-.369l.0495-.0253.0253-.0495c.146-.286.2701-.5845.369-.8876l.0174-.053-.0174-.0534c-.099-.3028-.2231-.6012-.369-.8872z"/></g></svg>