<svg width="160" height="36" fill="none" xmlns="http://www.w3.org/2000/svg"><path d="M64.96 30.45c-.17-.283-.885-1.412-1.139-1.76v-.292h1.139v-.81h-1.139v-1.77h-.856v1.77h-1.28v.81h1.214c-.273 1.214-.828 2.635-1.421 3.378.15.236.348.622.433.866.386-.564.762-1.42 1.054-2.343v4.15h.856v-4.677c.236.47.499.979.621 1.29l.518-.613zm5.158.14v-.8h-2.08v-1.486h1.797v-.8h-1.797v-1.685h-.857v1.684h-.81c.086-.357.16-.724.217-1.11l-.81-.132c-.15 1.092-.442 2.174-.922 2.87.189.095.546.32.697.443a5.49 5.49 0 00.584-1.27h1.044v1.487h-2.155v.8h1.703c-.517 1.12-1.374 2.174-2.268 2.738.188.16.452.462.584.678.828-.593 1.58-1.581 2.136-2.682v3.124h.857v-3.19c.451 1.044 1.073 2.06 1.703 2.673.15-.226.433-.527.64-.687-.725-.584-1.44-1.61-1.882-2.654h1.619zm3.793-.15h1.647v-.847h-4.085v.847h1.562v2.522c-.715.132-1.364.254-1.873.34l.254.884c1.205-.264 2.89-.63 4.452-.988l-.066-.791c-.63.132-1.27.264-1.891.377V30.44zm3.35-4.104c.461.33 1.007.82 1.27 1.149l.612-.546c-.272-.32-.847-.781-1.308-1.083l-.574.48zm2.212 2.005v-.856h-2.701c-.02-.527-.029-1.083-.02-1.629h-.94c0 .546.019 1.092.037 1.629h-4.715v.856h4.772c.235 3.388.979 6.127 2.532 6.127.78 0 1.091-.461 1.242-2.155a2.217 2.217 0 01-.772-.499c-.056 1.224-.17 1.732-.395 1.732-.819 0-1.478-2.24-1.685-5.205h2.645zm3.2.32c.838-.63 1.553-1.336 2.005-1.995.499.687 1.27 1.393 2.117 1.995h-4.122zm-.179.81H86.9v-.735c.546.386 1.12.716 1.666.98.15-.264.348-.575.555-.791-1.468-.575-3.03-1.723-4.028-3.106h-.904c-.706 1.148-2.24 2.503-3.85 3.237.19.189.424.518.519.716.564-.273 1.12-.612 1.637-.98v.678zm-1.619 1.797h2.334c-.225.63-.564 1.384-.875 1.967l-1.393.047.113.857c1.6-.066 3.99-.17 6.23-.283.17.226.311.433.415.612l.8-.499c-.433-.696-1.327-1.694-2.184-2.419l-.753.405c.367.33.744.725 1.092 1.12a761.05 761.05 0 01-3.36.132 41.54 41.54 0 00.998-1.939h4.31v-.819h-7.727v.82zm12.932-.17a46.745 46.745 0 00-1.44-1.232c.47-.621.885-1.308 1.167-2.024l-.49-.33-.15.03h-.65v-1.733h-.865v1.732h-1.421v.8h2.466c-.64 1.177-1.723 2.268-2.796 2.88.132.17.349.584.433.81.442-.283.894-.64 1.318-1.055v3.473h.866v-3.745c.386.385.81.837 1.026 1.11l.536-.715zm2.617 2.222v-3.69h1.9v-.846h-1.9v-2.9h-.895v2.9h-1.9v.847h1.9v3.689h-2.277v.866h5.27v-.866h-2.099zm11.883-4.715h-2.306v-.49h1.864v-.508h-1.864v-.47h-.791v.47h-1.769v.508h1.769v.49h-2.268v.517h5.365v-.517zm-2.24 2.475h1.402c-.235.188-.508.386-.762.555a3.709 3.709 0 01-.64-.546v-.01zm-1.845-1.11h2.824v.64h-2.824v-.64zm3.596.94v-1.42h-4.33v1.59h1.61c-.64.48-1.516.875-2.353 1.139.15.131.385.423.489.564a10.16 10.16 0 001.864-.931v1.195h.771V31.72a5.682 5.682 0 002.184 1.28c.103-.16.31-.433.461-.555a5.635 5.635 0 01-1.318-.518 8.418 8.418 0 001.083-.734l-.461-.283zm-5.28 2.382v-6.306h6.174v6.306h-6.174zm-.819-7.097v8.254h.819v-.367h6.174v.367h.856v-8.254h-7.849zm11.623 5.59h-.508v-5.769h-.706v5.77h-.48v-4.377h-.63v5.949h.63v-.866h1.694v.583h.612V27.41h-.612v4.377zm3.134-.602v.98h-1.138v-.98h1.138zm.716 1.61v-2.23h-2.551v2.747h.697v-.517h1.854zm-2.56-3.586c1.016-.226 1.618-.565 1.995-1.073.668.348 1.44.781 1.892 1.073h-3.887zm4.762 0h-.753l.499-.555c-.518-.32-1.45-.8-2.193-1.149.019-.075.038-.14.056-.216h2.109v-.715h-1.977c.019-.236.038-.49.047-.763h-.809c-.01.283-.028.537-.057.763h-1.995v.715h1.835c-.244.678-.781 1.054-1.986 1.29.151.15.339.432.415.63h-.537v.734h3.906v3.548c0 .142-.047.18-.198.18-.16.009-.668.009-1.223-.01.122.216.254.555.301.79.725 0 1.214-.018 1.525-.14.32-.133.414-.358.414-.8V29.94h.621v-.734zm1.176 1.986c-.094.81-.273 1.637-.555 2.202.179.066.527.226.668.33.292-.603.509-1.516.631-2.4l-.744-.132zm2.551-.659c.075.198.132.377.169.527l.669-.32c-.132-.517-.518-1.317-.904-1.93l-.63.274c.141.235.272.489.395.753l-1.252.047c.631-.782 1.337-1.817 1.873-2.673l-.744-.32c-.244.49-.583 1.073-.95 1.637a5.406 5.406 0 00-.461-.546c.339-.508.734-1.251 1.073-1.891l-.791-.283c-.169.509-.48 1.186-.772 1.704l-.254-.226-.423.584c.414.395.894.903 1.186 1.317a20.48 20.48 0 01-.546.734l-.659.02.075.77c.433-.027.932-.056 1.468-.084v3.83h.782v-3.877l.696-.047zm-.489.828c.235.574.489 1.318.574 1.807l.696-.244c-.103-.48-.357-1.214-.612-1.78l-.658.217zm2.522.414h2.118v1.62h-2.118v-1.62zm2.118-4.677v1.543h-2.118V27.1h2.118zm0 3.887h-2.118v-1.553h2.118v1.553zm.884 2.41v-7.088h-3.859v7.087h-.931v.79h5.468v-.79h-.678zM41.912 10.152h-3.594V9.05c0-.515-.046-.843-.138-.984-.092-.14-.245-.211-.46-.211a.596.596 0 00-.532.285c-.117.19-.175.478-.175.864 0 .496.067.87.202 1.12.129.252.493.555 1.094.91 1.722 1.024 2.806 1.864 3.254 2.52.447.655.67 1.712.67 3.17 0 1.06-.125 1.841-.376 2.344-.245.502-.723.925-1.434 1.268-.711.337-1.538.506-2.482.506-1.035 0-1.92-.196-2.656-.588-.73-.393-1.207-.892-1.434-1.499-.227-.606-.34-1.467-.34-2.582v-.975h3.594v1.811c0 .558.049.916.147 1.075.104.16.285.24.542.24.258 0 .447-.102.57-.304.129-.202.193-.502.193-.9 0-.877-.12-1.45-.358-1.72-.246-.269-.85-.72-1.811-1.35-.962-.638-1.6-1.1-1.912-1.388-.312-.288-.573-.687-.781-1.195-.202-.509-.303-1.158-.303-1.949 0-1.14.143-1.973.431-2.5.295-.527.767-.937 1.416-1.231.65-.3 1.434-.45 2.353-.45 1.005 0 1.86.162 2.564.486.711.325 1.18.736 1.407 1.232.232.49.349 1.327.349 2.51v.588zm10.386 4.21c0 1.495-.037 2.555-.11 3.18a3.493 3.493 0 01-.662 1.7c-.368.515-.867.91-1.498 1.186-.632.276-1.367.414-2.206.414-.797 0-1.514-.129-2.151-.386a3.567 3.567 0 01-1.526-1.177 3.522 3.522 0 01-.69-1.7c-.073-.613-.11-1.685-.11-3.217v-2.546c0-1.495.034-2.552.102-3.17a3.624 3.624 0 01.661-1.71c.374-.515.877-.91 1.508-1.186.63-.276 1.366-.414 2.206-.414.796 0 1.51.132 2.141.395A3.493 3.493 0 0151.498 6.9c.386.52.616 1.087.69 1.7.073.613.11 1.685.11 3.217v2.546zm-3.87-4.89c0-.692-.04-1.133-.12-1.323-.073-.196-.229-.294-.468-.294a.537.537 0 00-.469.239c-.104.153-.156.612-.156 1.378v6.949c0 .864.034 1.397.101 1.6.074.201.24.302.496.302.264 0 .433-.116.506-.349.074-.233.11-.787.11-1.663V9.472zM62.39 5.65v14.88h-3.392l-2.013-6.764v6.764H53.75V5.65h3.235l2.17 6.7v-6.7h3.235zm10.404 8.713c0 1.495-.037 2.555-.11 3.18a3.494 3.494 0 01-.662 1.7c-.368.515-.867.91-1.498 1.186-.631.276-1.367.414-2.206.414-.797 0-1.513-.129-2.15-.386a3.567 3.567 0 01-1.527-1.177 3.522 3.522 0 01-.689-1.7c-.073-.613-.11-1.685-.11-3.217v-2.546c0-1.495.034-2.552.101-3.17a3.624 3.624 0 01.662-1.71c.374-.515.876-.91 1.507-1.186.631-.276 1.367-.414 2.206-.414.797 0 1.51.132 2.142.395A3.493 3.493 0 0171.995 6.9a3.53 3.53 0 01.689 1.7c.073.613.11 1.685.11 3.217v2.546zm-3.87-4.89c0-.692-.04-1.133-.119-1.323-.073-.196-.23-.294-.469-.294a.537.537 0 00-.468.239c-.105.153-.157.612-.157 1.378v6.949c0 .864.034 1.397.102 1.6.073.201.239.302.496.302.263 0 .432-.116.505-.349.074-.233.11-.787.11-1.663v-6.84zM80.718 5.65v2.978L77.83 17.55h2.886v2.978h-7.132v-2.16l2.978-9.742h-2.63V5.649h6.784zm7.693 0l2.215 14.88h-3.961l-.193-2.674h-1.388l-.23 2.674h-4.007l1.966-14.88h5.598zm-2.05 9.568a174.812 174.812 0 01-.588-6.241c-.392 2.843-.637 4.923-.735 6.24h1.323zm14.146-9.568l-2.216 6.718 2.427 8.162H96.72l-1.563-6.378v6.378h-3.87V5.65h3.87v5.781l1.719-5.781h3.631zm4.761 0v14.88h-3.87V5.65h3.87zm13.915 6.489h-3.869V9.546c0-.754-.043-1.223-.129-1.406-.08-.19-.261-.285-.542-.285-.319 0-.521.113-.607.34-.086.226-.129.717-.129 1.47v6.912c0 .723.043 1.195.129 1.415.086.221.279.331.579.331.288 0 .475-.11.561-.33.092-.221.138-.739.138-1.554v-1.866h3.869v.58c0 1.537-.11 2.628-.331 3.271-.214.644-.695 1.208-1.443 1.692-.741.484-1.657.726-2.748.726-1.134 0-2.068-.205-2.803-.616-.736-.41-1.223-.977-1.462-1.7-.239-.73-.358-1.823-.358-3.282v-4.347c0-1.072.037-1.875.11-2.408.074-.54.291-1.057.653-1.553.367-.497.873-.886 1.516-1.168.65-.288 1.394-.432 2.234-.432 1.139 0 2.08.22 2.821.662.742.441 1.229.993 1.462 1.654.233.656.349 1.68.349 3.07v1.416zm10.23 2.224c0 1.495-.037 2.555-.111 3.18a3.496 3.496 0 01-.661 1.7c-.368.515-.867.91-1.498 1.186-.632.276-1.367.414-2.206.414-.797 0-1.514-.129-2.151-.386a3.568 3.568 0 01-1.526-1.177 3.517 3.517 0 01-.689-1.7c-.074-.613-.11-1.685-.11-3.217v-2.546c0-1.495.033-2.552.101-3.17a3.625 3.625 0 01.661-1.71c.374-.515.877-.91 1.508-1.186.631-.276 1.366-.414 2.206-.414.796 0 1.51.132 2.141.395a3.495 3.495 0 011.535 1.168c.386.52.616 1.087.689 1.7.074.613.111 1.685.111 3.217v2.546zm-3.87-4.89c0-.692-.04-1.133-.119-1.323-.074-.196-.23-.294-.469-.294a.538.538 0 00-.469.239c-.104.153-.156.612-.156 1.378v6.949c0 .864.034 1.397.101 1.6.074.201.239.302.496.302.264 0 .432-.116.506-.349.074-.233.11-.787.11-1.663v-6.84zm7.684 8.024v3.033h-2.803v-3.033h2.803zm4.982-11.847v11.9h2.353v2.978h-6.223V5.65h3.87zm11.093 0v2.978h-2.297V20.53h-3.87V8.627h-2.288V5.649h8.455zm.883 0h2.895c1.869 0 3.131.086 3.787.257.662.172 1.164.454 1.507.846.343.392.558.83.644 1.314.085.478.128 1.422.128 2.83v5.212c0 1.336-.064 2.23-.193 2.684-.122.447-.34.8-.652 1.057a2.813 2.813 0 01-1.158.533c-.46.098-1.152.147-2.078.147h-4.88V5.65zm3.869 2.546v9.788c.558 0 .901-.11 1.03-.33.128-.227.193-.837.193-1.83v-5.78c0-.675-.022-1.107-.065-1.297a.597.597 0 00-.294-.413c-.153-.092-.441-.138-.864-.138z" fill="#fff"/><g clip-path="url(#clip0)" fill="#fff"><path d="M14.012 3.477l.106.066.106-.066a9.89 9.89 0 011.268-.662l.372-.161-.353-.2a7.242 7.242 0 00-1.33-.584l-.063-.02-.063.02a7.21 7.21 0 00-1.331.585l-.353.2.372.16c.436.189.863.412 1.269.662z"/><path d="M28.235 11.918a8.845 8.845 0 00-4.333-7.585A8.845 8.845 0 0016.317 0c-.742 0-1.482.094-2.2.279A8.822 8.822 0 0011.919 0a8.845 8.845 0 00-7.585 4.333A8.845 8.845 0 000 11.918c0 .743.094 1.482.279 2.2a8.834 8.834 0 00-.279 2.2 8.846 8.846 0 004.333 7.584 8.845 8.845 0 007.585 4.333c.743 0 1.482-.094 2.2-.278a8.825 8.825 0 002.199.278 8.845 8.845 0 007.585-4.333 8.845 8.845 0 004.333-7.585c0-.742-.094-1.482-.278-2.2a8.834 8.834 0 00.278-2.199zm-3.482 6.502l-.083.068.01.107a8.396 8.396 0 01-1.074 5.011 8.395 8.395 0 01-5.01 1.075l-.108-.011-.068.084a8.355 8.355 0 01-4.302 2.786 8.354 8.354 0 01-4.303-2.786l-.068-.084-.107.01a8.395 8.395 0 01-5.011-1.074 8.396 8.396 0 01-1.074-5.01l.01-.108-.083-.068a8.35 8.35 0 01-2.786-4.302 8.35 8.35 0 012.786-4.302l.083-.07-.01-.106a8.396 8.396 0 011.074-5.011 8.395 8.395 0 015.01-1.074l.108.01.068-.083A8.355 8.355 0 0114.118.695a8.355 8.355 0 014.302 2.787l.068.083.108-.01a8.395 8.395 0 015.011 1.074 8.396 8.396 0 011.074 5.01l-.011.108.083.068a8.35 8.35 0 012.786 4.303 8.35 8.35 0 01-2.786 4.302z"/><path d="M21.567 6.519l.028.12.122.03c.462.109.92.253 1.361.427l.377.15-.109-.391a7.297 7.297 0 00-.525-1.352l-.03-.059-.059-.03a7.317 7.317 0 00-1.351-.525l-.39-.109.148.377c.175.441.319.9.428 1.362zm-4.432.014l.075.116.136-.029c.396-.084.8-.146 1.204-.181l.267-.024-.097-.25a7.266 7.266 0 00-.652-1.284l-.076-.119-.137.03c-.47.104-.93.255-1.37.45l-.246.108.172.206c.26.31.504.639.724.977zm7.557 7.585l.066.106c.25.405.473.832.662 1.268l.161.372.2-.352c.238-.422.435-.87.585-1.332l.02-.062-.02-.063a7.261 7.261 0 00-.585-1.331l-.2-.353-.16.372c-.19.436-.413.863-.663 1.268l-.066.107zM22.07 9.516l-.25-.098-.023.268a9.97 9.97 0 01-.182 1.203l-.03.136.117.075c.338.22.667.464.978.724l.205.172.109-.245a7.27 7.27 0 00.448-1.37l.03-.138-.118-.076a7.28 7.28 0 00-1.284-.651zM18.32 9.1l.06.226c.028.1.053.2.077.302l.029.122.121.028c.102.024.203.05.303.077l.224.06.029-.231c.017-.143.03-.29.039-.437l.013-.227-.227.014a7.16 7.16 0 00-.437.039l-.23.028zm3.397 12.467l-.121.029-.03.12a9.644 9.644 0 01-.427 1.362l-.149.377.391-.109c.467-.13.921-.306 1.352-.525l.058-.03.03-.059c.219-.43.396-.885.525-1.351l.109-.391-.377.15a9.942 9.942 0 01-1.361.427zm1.277-5.083l-.109-.245-.205.172c-.31.26-.64.504-.978.724l-.116.075.03.136c.084.396.145.8.18 1.203l.024.268.25-.098c.447-.173.88-.392 1.284-.65l.119-.077-.03-.137a7.287 7.287 0 00-.45-1.371zm-1.671-2.366l-.17-.151a7.316 7.316 0 00-.335-.28l-.183-.144-.116.202c-.052.09-.105.178-.16.267l-.065.106.065.106c.055.088.108.177.16.266l.116.203.183-.144a7.52 7.52 0 00.335-.28l.17-.151zm-1.035-2.558l-.163-.077a8.734 8.734 0 00-2.594-.779 8.726 8.726 0 00-.778-2.593l-.079-.163-.17.06a8.78 8.78 0 00-2.386 1.283 8.776 8.776 0 00-2.386-1.283l-.171-.06-.078.163a8.727 8.727 0 00-.778 2.593 8.734 8.734 0 00-2.594.779l-.163.078.06.17a8.768 8.768 0 001.284 2.387 8.768 8.768 0 00-1.284 2.386l-.06.17.163.079a8.73 8.73 0 002.594.778 8.73 8.73 0 00.778 2.594l.078.163.17-.06a8.779 8.779 0 002.387-1.284c.727.55 1.53.982 2.386 1.284l.17.06.079-.163a8.724 8.724 0 00.778-2.594 8.736 8.736 0 002.594-.778l.163-.078-.06-.17a8.767 8.767 0 00-1.284-2.387c.55-.728.983-1.53 1.284-2.387l.06-.17zm-4.189 4.54a8.35 8.35 0 01-1.981.822 8.352 8.352 0 01-1.982-.822 8.349 8.349 0 01-.822-1.981 8.36 8.36 0 01.822-1.982 8.352 8.352 0 011.982-.822c.69.187 1.356.463 1.981.822.36.626.636 1.292.823 1.982a8.353 8.353 0 01-.823 1.98zm-1.875 8.658l-.106-.066-.106.066c-.406.25-.833.474-1.269.662l-.372.161.353.2c.421.238.87.435 1.331.585l.063.02.062-.02c.462-.15.91-.347 1.332-.585l.352-.2-.372-.16a9.917 9.917 0 01-1.268-.663zm3.122-3.143l-.136-.03-.075.117c-.22.338-.464.667-.724.978l-.172.205.245.108c.44.195.901.346 1.371.45l.137.03.076-.119a7.31 7.31 0 00.652-1.284l.097-.25-.268-.024a9.878 9.878 0 01-1.203-.181zm1.817-3.064l-.029-.231-.224.06c-.1.028-.202.053-.303.077l-.121.029-.029.121c-.024.102-.05.203-.076.303l-.06.224.23.028c.144.018.29.03.438.04l.226.014-.013-.228a7.556 7.556 0 00-.04-.437zM6.669 21.717l-.03-.121-.12-.03a9.923 9.923 0 01-1.362-.427l-.377-.149.109.391c.13.466.306.92.525 1.351l.03.059.059.03c.43.218.885.395 1.351.525l.391.109-.149-.377a9.866 9.866 0 01-.427-1.361zm4.431-.015l-.075-.116-.136.029c-.395.085-.8.146-1.203.181l-.268.024.097.25c.174.447.393.88.652 1.284l.076.119.137-.03c.47-.104.931-.255 1.371-.45l.246-.108-.173-.205c-.26-.31-.504-.64-.723-.978zm3.017-.379l.151-.17c.097-.108.19-.221.28-.335l.144-.183-.201-.116a9.556 9.556 0 01-.268-.16l-.106-.065-.105.066a9.464 9.464 0 01-.268.159l-.201.116.144.183c.09.114.183.227.28.335l.15.17zM6.519 6.668l.12-.028.03-.121c.109-.463.252-.921.427-1.362l.149-.377-.39.109c-.467.13-.922.307-1.352.525l-.059.03-.03.059a7.29 7.29 0 00-.525 1.352l-.109.39.377-.15a9.903 9.903 0 011.362-.427zm4.371-.048l.135.03.076-.117c.22-.338.463-.667.723-.977l.173-.206-.246-.108a7.25 7.25 0 00-1.37-.45l-.138-.03-.076.12a7.265 7.265 0 00-.652 1.283l-.097.25.268.024a9.89 9.89 0 011.203.181zm3.227.292l-.15.17c-.097.109-.19.221-.28.336l-.144.182.201.116c.09.052.18.105.268.16l.105.065.106-.065c.089-.055.177-.108.268-.16l.201-.116-.144-.182a7.16 7.16 0 00-.28-.336l-.15-.17zM2.815 12.743l-.16-.372-.2.353a7.26 7.26 0 00-.585 1.331l-.02.063.02.062c.15.463.346.91.585 1.332l.2.352.16-.372c.19-.436.412-.863.663-1.268l.065-.106-.065-.107a9.92 9.92 0 01-.663-1.268zm2.426-.992l.109.245.205-.172c.311-.26.64-.504.978-.724l.116-.075-.029-.136a9.98 9.98 0 01-.182-1.203l-.023-.268-.25.098c-.447.173-.88.392-1.284.651l-.119.076.03.137c.104.47.255.93.45 1.371zm3.832-2.067l.028.232.225-.061c.1-.027.2-.053.302-.077l.122-.028.028-.122c.024-.101.05-.202.076-.302l.061-.225-.23-.028a7.147 7.147 0 00-.438-.04L9.02 9.02l.013.227c.01.147.023.294.04.437zM6.165 18.72l.25.097.024-.268a9.81 9.81 0 01.181-1.203l.03-.136-.117-.075c-.338-.22-.667-.464-.977-.724l-.206-.172-.108.245c-.195.44-.346.901-.45 1.37l-.03.138.119.076c.405.259.837.478 1.284.651zm1.552-4.975l-.117-.202-.183.144a7.35 7.35 0 00-.335.28l-.17.15.17.152c.109.096.222.19.335.28l.183.144.117-.202c.051-.09.104-.179.159-.267l.066-.106-.066-.106a11.583 11.583 0 01-.16-.267zm2.198 5.389l-.06-.224a7.457 7.457 0 01-.077-.303l-.028-.121-.122-.03a8.49 8.49 0 01-.302-.075L9.1 18.32l-.028.231c-.017.143-.03.29-.04.437l-.013.228.227-.014c.147-.01.294-.022.437-.04l.231-.027z"/><path d="M15.312 13.01l-.03-.057-.058-.03a7.247 7.247 0 00-1.044-.434l-.062-.021-.063.02a7.247 7.247 0 00-1.044.435l-.058.03-.03.058a7.289 7.289 0 00-.434 1.044l-.02.062.02.063c.116.356.262.707.434 1.044l.03.058.058.03c.337.172.688.318 1.044.434l.063.02.062-.02a7.249 7.249 0 001.044-.434l.059-.03.03-.058a7.26 7.26 0 00.433-1.044l.02-.063-.02-.062a7.29 7.29 0 00-.434-1.044z"/></g><defs><clipPath id="clip0"><path fill="#fff" d="M0 0h28.235v28.235H0z"/></clipPath></defs></svg>