<svg width="120" height="27" fill="none" xmlns="http://www.w3.org/2000/svg"><g clip-path="url(#clip0)" fill="#fff"><path d="M48.72 23.087a31.148 31.148 0 00-.854-1.32v-.219h.854v-.607h-.854v-1.327h-.642v1.327h-.96v.607h.91c-.205.91-.621 1.977-1.066 2.534.113.177.261.466.325.65.29-.424.572-1.066.79-1.758v3.113h.643v-3.508c.176.353.374.734.466.967l.388-.46zm3.868.106v-.6h-1.56v-1.116h1.349v-.6h-1.349v-1.263h-.642v1.264h-.607c.063-.269.12-.544.162-.833l-.607-.1c-.113.82-.332 1.631-.692 2.154.141.07.41.24.523.331a4.12 4.12 0 00.437-.953h.784v1.116h-1.617v.6h1.278c-.388.84-1.03 1.63-1.701 2.054.141.12.339.346.438.508.62-.444 1.185-1.186 1.602-2.012v2.344h.642v-2.393c.34.784.805 1.546 1.278 2.005.113-.17.325-.396.48-.516-.544-.437-1.08-1.207-1.412-1.99h1.214zm2.845-.113h1.235v-.635h-3.063v.635h1.172v1.892c-.537.098-1.024.19-1.405.254l.19.663c.904-.197 2.167-.473 3.34-.74l-.05-.594c-.473.099-.953.198-1.42.282V23.08zm2.513-3.078c.346.247.755.614.953.861l.459-.409c-.205-.24-.636-.586-.981-.812l-.431.36zm1.659 1.504v-.643h-2.026a23.277 23.277 0 01-.014-1.22h-.706c0 .409.014.818.028 1.22h-3.536v.643h3.578c.177 2.54.734 4.595 1.9 4.595.585 0 .818-.346.931-1.616a1.662 1.662 0 01-.579-.375c-.042.918-.127 1.3-.296 1.3-.614 0-1.108-1.68-1.264-3.904h1.984zm2.4.24c.628-.473 1.164-1.003 1.503-1.497.374.516.953 1.045 1.589 1.497h-3.092zm-.134.607h3.303v-.55c.41.289.84.536 1.25.733.112-.197.26-.43.416-.593-1.101-.43-2.273-1.291-3.021-2.329h-.678c-.53.861-1.68 1.878-2.887 2.428.141.141.318.388.388.537.424-.205.84-.46 1.229-.734v.508zM60.656 23.7h1.751c-.17.473-.423 1.038-.656 1.475l-1.045.036.085.642c1.2-.05 2.992-.127 4.672-.212.128.17.234.325.311.46l.6-.375c-.325-.522-.995-1.27-1.637-1.814l-.565.303c.275.247.557.544.819.84-.862.036-1.737.07-2.52.1.254-.453.515-.982.748-1.455h3.233v-.614h-5.795v.614zm9.7-.127a35.007 35.007 0 00-1.08-.925c.352-.466.663-.98.875-1.517l-.367-.247-.113.02h-.488v-1.298h-.649v1.299h-1.066v.6h1.85c-.48.882-1.292 1.7-2.097 2.16.099.127.261.437.325.607.332-.212.67-.48.988-.79v2.604h.65v-2.81c.289.29.607.629.769.833l.402-.536zm1.962 1.666v-2.767h1.425v-.636h-1.425v-2.174h-.67v2.174H70.22v.636h1.426v2.767H69.94v.65h3.953v-.65h-1.574zm8.912-3.537H79.5v-.367h1.398v-.38h-1.397v-.354h-.593v.353H77.58v.381h1.327v.367h-1.701v.389h4.023v-.389zm-1.68 1.857h1.052c-.177.141-.381.29-.572.416a2.804 2.804 0 01-.48-.41v-.006zm-1.383-.833h2.117v.48h-2.117v-.48zm2.696.706v-1.066h-3.247v1.193h1.207c-.48.36-1.136.656-1.765.854.113.099.29.318.367.423.466-.176.96-.416 1.398-.698v.896h.579v-.995a4.26 4.26 0 001.638.96 2.15 2.15 0 01.345-.417 4.232 4.232 0 01-.988-.388c.261-.148.558-.346.812-.55l-.346-.212zm-3.96 1.786v-4.73h4.63v4.73h-4.63zm-.614-5.323v6.19h.614v-.274h4.63v.275h.643v-6.19H76.29zm8.718 4.193h-.382v-4.327h-.529v4.327h-.36v-3.282h-.473v4.461h.473v-.65h1.27v.438h.46v-4.25h-.46v3.283zm2.35-.451v.734h-.854v-.735h.854zm.537 1.207v-1.673H85.98v2.06h.522v-.387h1.39zm-1.92-2.69c.762-.17 1.214-.423 1.496-.805.501.262 1.08.586 1.419.805h-2.915zm3.572 0h-.565l.374-.416a19.01 19.01 0 00-1.645-.861c.014-.057.028-.106.043-.163h1.58v-.536h-1.482c.014-.177.029-.367.036-.572h-.607a6.357 6.357 0 01-.043.572h-1.496v.536h1.376c-.183.508-.586.79-1.49.967.114.113.255.325.311.473h-.402v.55h2.93v2.662c0 .106-.036.134-.149.134-.12.007-.5.007-.917-.007.091.162.19.416.225.593.544 0 .911-.014 1.144-.106.24-.099.31-.268.31-.6v-2.675h.467v-.55zm.882 1.49c-.07.607-.205 1.228-.417 1.651.135.05.396.17.502.247.218-.451.38-1.136.472-1.8l-.557-.098zm1.913-.494c.056.148.099.282.127.395l.501-.24c-.099-.389-.388-.989-.678-1.447l-.473.204c.106.177.205.367.297.565l-.939.035a22.17 22.17 0 001.405-2.004l-.558-.24a13.17 13.17 0 01-.713 1.228 4.13 4.13 0 00-.346-.41c.254-.38.55-.938.805-1.418l-.593-.212a8.12 8.12 0 01-.579 1.278l-.19-.17-.318.438c.31.296.67.678.89.988-.142.198-.276.381-.41.55l-.494.015.056.579a88.53 88.53 0 011.102-.064v2.873h.585v-2.908l.523-.035zm-.367.62c.176.431.367.989.43 1.356l.523-.184a7.701 7.701 0 00-.46-1.334l-.493.163zm1.891.311h1.589v1.214h-1.588v-1.214zm1.589-3.508v1.158h-1.588v-1.158h1.588zm0 2.915h-1.588v-1.164h1.588v1.164zm.663 1.807V19.98h-2.894v5.315h-.699v.593h4.102v-.593h-.509zM31.434 7.864h-2.696v-.827c0-.386-.034-.632-.103-.737-.069-.106-.184-.159-.345-.159a.447.447 0 00-.4.214c-.087.142-.13.358-.13.648 0 .372.05.652.151.84.097.19.37.417.82.683 1.292.768 2.105 1.397 2.44 1.889.336.492.504 1.284.504 2.378 0 .795-.094 1.381-.283 1.758-.183.377-.542.694-1.075.951-.533.253-1.153.38-1.861.38-.777 0-1.44-.148-1.992-.442-.547-.294-.906-.668-1.076-1.123-.17-.455-.255-1.101-.255-1.938v-.73h2.696v1.358c0 .418.036.687.11.806.078.12.214.18.407.18a.465.465 0 00.427-.228c.096-.152.145-.377.145-.676 0-.657-.09-1.086-.27-1.289-.183-.202-.636-.54-1.357-1.013-.722-.478-1.2-.825-1.434-1.04-.234-.217-.43-.515-.586-.897-.152-.381-.227-.868-.227-1.461 0-.855.108-1.48.324-1.875.22-.396.574-.703 1.061-.924.487-.225 1.076-.338 1.765-.338.754 0 1.395.122 1.923.366.533.243.885.551 1.055.923.174.368.262.995.262 1.882v.441zm7.79 3.157c0 1.122-.028 1.917-.083 2.386a2.62 2.62 0 01-.497 1.275c-.275.386-.65.682-1.123.89-.474.206-1.025.31-1.655.31a4.275 4.275 0 01-1.613-.29 2.675 2.675 0 01-1.144-.883 2.643 2.643 0 01-.517-1.275c-.055-.46-.083-1.264-.083-2.412v-1.91c0-1.121.026-1.914.076-2.378a2.72 2.72 0 01.496-1.282 2.7 2.7 0 011.13-.89c.474-.206 1.026-.31 1.655-.31.598 0 1.133.099 1.606.297a2.62 2.62 0 011.152.875c.29.39.462.816.517 1.275.055.46.082 1.264.082 2.413v1.91zM36.32 7.354c0-.52-.03-.85-.09-.992-.055-.147-.172-.221-.35-.221a.403.403 0 00-.352.18c-.079.114-.118.459-.118 1.033v5.212c0 .648.026 1.047.076 1.2.055.15.18.227.372.227.198 0 .324-.088.38-.262.055-.175.082-.59.082-1.248V7.354zm10.471-2.867v11.16H44.25l-1.51-5.074v5.074h-2.426V4.487h2.426l1.627 5.025V4.487h2.426zm7.804 6.534c0 1.122-.028 1.917-.083 2.386a2.62 2.62 0 01-.496 1.275c-.276.386-.65.682-1.124.89-.473.206-1.025.31-1.654.31a4.275 4.275 0 01-1.613-.29 2.674 2.674 0 01-1.145-.883 2.64 2.64 0 01-.517-1.275c-.055-.46-.083-1.264-.083-2.412v-1.91c0-1.121.026-1.914.076-2.378.055-.469.22-.896.497-1.282a2.7 2.7 0 011.13-.89c.473-.206 1.025-.31 1.654-.31.598 0 1.133.099 1.607.297a2.62 2.62 0 011.15.875c.29.39.463.816.518 1.275.055.46.083 1.264.083 2.413v1.91zm-2.902-3.667c0-.52-.03-.85-.09-.992-.055-.147-.172-.221-.352-.221a.403.403 0 00-.351.18c-.078.114-.117.459-.117 1.033v5.212c0 .648.025 1.047.075 1.2.055.15.18.227.373.227.197 0 .324-.088.379-.262.055-.175.083-.59.083-1.248V7.354zm8.844-2.867V6.72l-2.165 6.694h2.165v2.233h-5.35v-1.62l2.234-7.307H55.45V4.487h5.088zm5.77 0l1.66 11.16h-2.97l-.145-2.006h-1.041l-.172 2.006h-3.006l1.475-11.16h4.198zm-1.538 7.176a131.503 131.503 0 01-.441-4.681c-.294 2.132-.478 3.692-.551 4.68h.992zm10.61-7.176l-1.662 5.039 1.82 6.121h-2.999l-1.172-4.784v4.784h-2.902V4.487h2.902v4.336l1.29-4.336h2.722zm3.57 0v11.16h-2.902V4.487h2.902zm10.436 4.866h-2.902V7.41c0-.565-.032-.916-.096-1.054-.06-.143-.195-.214-.407-.214-.239 0-.39.085-.455.255-.064.17-.096.538-.096 1.103v5.184c0 .542.032.896.096 1.061.065.166.21.249.434.249.217 0 .357-.083.421-.249.069-.165.103-.553.103-1.165v-1.4h2.903v.434c0 1.154-.083 1.972-.249 2.454-.16.483-.521.906-1.082 1.269-.556.363-1.243.544-2.061.544-.85 0-1.551-.154-2.103-.462-.551-.307-.916-.732-1.096-1.275-.179-.547-.268-1.367-.268-2.46V8.422c0-.805.027-1.407.082-1.806a2.55 2.55 0 01.49-1.165c.276-.373.655-.664 1.137-.876.487-.216 1.046-.324 1.675-.324.855 0 1.56.166 2.116.497.557.33.922.744 1.096 1.24.175.492.263 1.26.263 2.303v1.061zm7.673 1.668c0 1.122-.028 1.917-.083 2.386a2.62 2.62 0 01-.496 1.275 2.65 2.65 0 01-1.124.89c-.473.206-1.025.31-1.654.31a4.275 4.275 0 01-1.613-.29 2.675 2.675 0 01-1.145-.883 2.642 2.642 0 01-.517-1.275c-.055-.46-.082-1.264-.082-2.412v-1.91c0-1.121.025-1.914.076-2.378.055-.469.22-.896.496-1.282a2.7 2.7 0 011.13-.89c.474-.206 1.025-.31 1.655-.31.597 0 1.133.099 1.606.297a2.62 2.62 0 011.151.875c.29.39.462.816.517 1.275.055.46.083 1.264.083 2.413v1.91zm-2.902-3.667c0-.52-.03-.85-.09-.992-.055-.147-.172-.221-.351-.221a.402.402 0 00-.352.18c-.078.114-.117.459-.117 1.033v5.212c0 .648.025 1.047.076 1.2.055.15.179.227.372.227.198 0 .324-.088.379-.262.055-.175.083-.59.083-1.248V7.354zm5.763 6.018v2.275h-2.103v-2.275h2.103zm3.736-8.885v8.927h1.765v2.233h-4.667V4.487h2.902zm8.32 0V6.72h-1.723v8.927h-2.902V6.72h-1.717V4.487h6.342zm.662 0h2.171c1.402 0 2.349.064 2.84.193.497.128.874.34 1.131.634s.418.622.482.986c.065.358.097 1.066.097 2.123v3.908c0 1.002-.048 1.673-.145 2.013-.092.336-.255.6-.489.793a2.11 2.11 0 01-.869.4c-.345.073-.864.11-1.558.11h-3.66V4.487zm2.902 1.909v7.342c.418 0 .676-.083.772-.249.097-.17.145-.627.145-1.371V7.782c0-.506-.016-.83-.048-.972a.452.452 0 00-.221-.31c-.115-.07-.331-.104-.648-.104z"/><g clip-path="url(#clip1)"><path d="M10.509 2.608l.08.05.079-.05c.304-.188.624-.355.951-.497l.28-.12-.265-.15a5.434 5.434 0 00-.999-.439l-.047-.015-.046.015c-.347.113-.683.26-.999.44l-.265.149.28.12c.327.142.647.31.95.497z"/><path d="M21.177 8.939a6.634 6.634 0 00-3.25-5.689A6.634 6.634 0 0012.236 0c-.556 0-1.11.07-1.649.209A6.616 6.616 0 008.938 0 6.634 6.634 0 003.25 3.25 6.634 6.634 0 000 8.939c0 .557.07 1.111.209 1.65A6.625 6.625 0 000 12.237a6.634 6.634 0 003.25 5.689 6.634 6.634 0 005.689 3.25c.557 0 1.111-.071 1.65-.21.537.139 1.092.21 1.649.21a6.634 6.634 0 005.689-3.25 6.634 6.634 0 003.25-5.69c0-.556-.071-1.11-.21-1.649.139-.538.21-1.092.21-1.65zm-2.612 4.876l-.063.051.009.08a6.296 6.296 0 01-.805 3.758 6.297 6.297 0 01-3.76.807l-.08-.009-.051.063a6.265 6.265 0 01-3.227 2.09 6.266 6.266 0 01-3.227-2.09l-.05-.063-.081.009a6.297 6.297 0 01-3.758-.806 6.297 6.297 0 01-.806-3.759l.008-.08-.062-.051a6.262 6.262 0 01-2.09-3.227 6.262 6.262 0 012.09-3.226l.062-.052-.008-.08a6.297 6.297 0 01.805-3.758 6.296 6.296 0 013.759-.806l.08.008.051-.063a6.266 6.266 0 013.227-2.09 6.265 6.265 0 013.227 2.09l.051.063.08-.008a6.296 6.296 0 013.759.806 6.297 6.297 0 01.806 3.758l-.008.08.062.052a6.263 6.263 0 012.09 3.226 6.262 6.262 0 01-2.09 3.227z"/><path d="M16.175 4.889l.021.09.091.022c.347.082.69.19 1.021.32l.283.113-.081-.293a5.464 5.464 0 00-.395-1.014l-.022-.044-.044-.022a5.49 5.49 0 00-1.013-.394l-.293-.082.111.283c.131.33.24.674.321 1.021zm-3.324.011l.057.087.101-.022c.297-.063.601-.11.903-.136l.2-.018-.072-.188a5.45 5.45 0 00-.489-.962l-.057-.09-.103.023a5.472 5.472 0 00-1.028.337l-.184.081.13.155c.195.232.377.48.542.733zm5.669 5.688l.048.08c.188.304.355.624.497.951l.12.28.15-.265c.18-.316.327-.652.44-1l.014-.046-.015-.046a5.44 5.44 0 00-.438-1l-.15-.264-.12.28a7.447 7.447 0 01-.498.95l-.049.08zm-1.967-3.451l-.188-.073-.017.2a7.468 7.468 0 01-.137.903l-.022.102.088.056c.253.165.5.348.733.543l.154.129.081-.184a5.46 5.46 0 00.337-1.028l.023-.103-.09-.057a5.456 5.456 0 00-.962-.488zm-2.813-.311l.046.168c.02.075.039.151.057.227l.021.092.091.02c.076.018.152.038.227.058l.169.046.02-.174a5.62 5.62 0 00.03-.328l.01-.17-.17.01c-.11.007-.22.017-.328.03l-.173.02zm2.548 9.349l-.091.022-.022.09c-.082.347-.19.69-.32 1.021l-.112.283.293-.081c.35-.098.69-.23 1.013-.394l.044-.023.023-.044c.164-.323.297-.664.394-1.013l.081-.294-.282.112c-.331.131-.675.24-1.021.321zm.957-3.812l-.081-.184-.154.13c-.233.194-.48.377-.733.542l-.088.056.022.102c.064.297.11.6.137.903l.017.2.188-.072c.335-.13.66-.295.963-.489l.089-.057-.023-.103a5.469 5.469 0 00-.337-1.028zm-1.253-1.775l-.127-.113a5.509 5.509 0 00-.252-.21l-.137-.108-.087.152a8.178 8.178 0 01-.12.2l-.049.08.05.079.119.2.087.151.137-.107c.086-.068.17-.138.252-.21l.127-.114zm-.776-1.918l-.122-.058a6.55 6.55 0 00-1.946-.584 6.543 6.543 0 00-.583-1.945l-.06-.122-.127.045a6.584 6.584 0 00-1.79.962 6.582 6.582 0 00-1.79-.962l-.127-.045-.059.122a6.545 6.545 0 00-.583 1.945c-.68.094-1.334.29-1.946.584l-.122.059.045.127c.226.643.55 1.245.963 1.79a6.577 6.577 0 00-.963 1.79l-.045.128.122.059c.612.293 1.266.49 1.946.583.093.68.289 1.333.583 1.946l.059.122.128-.045a6.583 6.583 0 001.79-.963 6.583 6.583 0 001.789.963l.128.045.059-.122c.294-.612.49-1.267.583-1.946a6.55 6.55 0 001.946-.583l.122-.059-.045-.128a6.577 6.577 0 00-.963-1.79 6.577 6.577 0 00.963-1.79l.045-.127zm-3.142 3.404c-.469.27-.968.477-1.486.617a6.27 6.27 0 01-1.486-.617 6.264 6.264 0 01-.617-1.486 6.3 6.3 0 01.617-1.486 6.23 6.23 0 011.486-.616 6.28 6.28 0 011.486.616c.27.47.477.969.617 1.486a6.265 6.265 0 01-.617 1.486zm-1.406 6.495l-.08-.05-.08.05a7.427 7.427 0 01-.95.496l-.28.12.265.15c.316.18.652.327.999.44l.046.015.047-.016c.347-.112.683-.26.999-.439l.264-.15-.279-.12a7.434 7.434 0 01-.951-.497zm2.342-2.358l-.102-.021-.057.086a7.597 7.597 0 01-.543.734l-.129.154.184.08c.33.147.676.26 1.028.338l.103.023.057-.09c.194-.303.359-.627.489-.962l.073-.188-.2-.018a7.39 7.39 0 01-.904-.136zm1.362-2.298l-.021-.173-.169.046c-.075.02-.15.039-.226.057l-.092.021-.021.091a7.38 7.38 0 01-.057.227l-.046.169.173.02c.108.014.218.023.328.03l.17.01-.01-.17a5.709 5.709 0 00-.03-.328zm-9.371 2.374l-.021-.09-.091-.022a7.432 7.432 0 01-1.021-.32l-.283-.113.082.294c.097.35.23.69.394 1.013l.022.044.044.023a5.49 5.49 0 001.014.394l.293.081-.112-.283a7.403 7.403 0 01-.32-1.02zm3.324-.011l-.056-.087-.102.022c-.297.064-.6.11-.903.136l-.2.018.073.188c.13.335.294.659.488.962l.057.09.103-.023a5.4 5.4 0 001.028-.337l.184-.081-.129-.154a7.493 7.493 0 01-.543-.734zm2.263-.284l.113-.127c.072-.081.143-.166.21-.252l.108-.137-.151-.087a7.46 7.46 0 01-.2-.12l-.08-.049-.08.05-.2.12-.151.086.108.137c.067.086.138.17.21.252l.113.127zM4.889 5.001l.09-.021.022-.091c.082-.347.19-.69.321-1.021l.112-.283-.293.082c-.35.097-.691.23-1.014.394l-.044.022-.022.044a5.468 5.468 0 00-.394 1.014l-.082.293.283-.112a7.37 7.37 0 011.021-.32zm3.278-.036l.102.022.056-.087c.165-.254.348-.5.543-.733l.13-.155-.185-.08a5.437 5.437 0 00-1.028-.338l-.103-.022-.057.089a5.447 5.447 0 00-.488.962l-.073.188.2.018c.302.027.606.073.903.136zm2.421.219l-.113.128a5.282 5.282 0 00-.21.251l-.108.137.151.087.2.12.08.05.08-.05.2-.12.151-.087-.108-.137a5.405 5.405 0 00-.21-.251l-.113-.128zM2.111 9.557l-.12-.279-.15.265a5.444 5.444 0 00-.439.998l-.015.047.015.047c.113.347.26.683.439.999l.15.264.12-.279c.142-.327.31-.647.497-.951l.05-.08-.05-.08a7.441 7.441 0 01-.497-.95zm1.82-.744l.081.184.155-.13a7.65 7.65 0 01.733-.542l.087-.056-.022-.102c-.064-.297-.11-.6-.136-.903l-.018-.2-.187.073c-.336.13-.66.294-.963.488l-.09.057.023.103c.078.352.191.698.337 1.028zm2.874-1.55l.02.174.17-.046c.074-.02.15-.04.226-.057l.091-.021.022-.092c.018-.076.037-.152.057-.227l.045-.168-.173-.021a5.368 5.368 0 00-.328-.03l-.17-.01.01.17c.007.11.017.22.03.328zM4.624 14.04l.187.073.018-.201c.027-.302.072-.606.136-.903l.022-.102-.087-.056a7.648 7.648 0 01-.733-.543l-.155-.129-.08.184a5.33 5.33 0 00-.337 1.028l-.023.103.089.057c.303.194.627.359.963.489zm1.164-3.731l-.088-.152-.137.108c-.085.067-.17.138-.251.21l-.128.113.128.114c.081.072.166.143.251.21l.137.107.088-.151c.038-.067.078-.134.119-.2l.05-.08-.05-.079a8.515 8.515 0 01-.12-.2zm1.648 4.041l-.045-.168a8.04 8.04 0 01-.057-.227l-.022-.09-.091-.022a6.53 6.53 0 01-.227-.057l-.168-.046-.021.173a5.62 5.62 0 00-.03.328l-.01.17.17-.01c.11-.007.22-.016.328-.03l.173-.02z"/><path d="M11.484 9.758l-.022-.043-.044-.023a5.43 5.43 0 00-.783-.325l-.047-.016-.047.016c-.267.087-.53.196-.783.325l-.043.023-.023.043a5.463 5.463 0 00-.325.783l-.016.047.016.047c.087.267.197.53.325.783l.023.044.043.022c.253.129.516.238.783.326l.047.015.047-.015c.268-.088.53-.197.783-.326l.044-.022.022-.044c.13-.252.239-.516.326-.783l.015-.047-.015-.047a5.467 5.467 0 00-.326-.783z"/></g></g><defs><clipPath id="clip0"><path fill="#fff" d="M0 0h120v26.57H0z"/></clipPath><clipPath id="clip1"><path fill="#fff" d="M0 0h21.177v21.177H0z"/></clipPath></defs></svg>